<svg width="340" height="120" viewBox="0 0 340 120" fill="none" xmlns="http://www.w3.org/2000/svg">
<path fill-rule="evenodd" clip-rule="evenodd" d="M170.103 0C76.5224 0 0.472656 26.9854 0.472656 60.1227C0.472656 93.2599 76.5224 120 170.103 120C263.684 120 339.941 93.3543 339.941 60.1227C339.941 26.891 263.929 0 170.103 0ZM170.103 115.339C79.2586 115.339 5.92634 90.618 5.92634 60.1227C5.92634 29.6273 79.2586 5.00079 170.103 5.00079C260.948 5.00079 334.487 29.7217 334.487 60.1227C334.487 90.5237 260.891 115.339 170.103 115.339Z" fill="white"/>
<path fill-rule="evenodd" clip-rule="evenodd" d="M219.978 22.0786C219.978 25.7396 207.222 32.6841 196.409 32.6841C179.557 32.6841 162.026 24.5884 153.949 22.7768C145.174 20.7199 137.211 19.0027 130.945 19.0027C108.98 19.0027 99.1857 28.4381 99.6386 37.0998C99.8651 40.6287 102.715 42.9121 106.923 42.1006C111.471 41.308 117.849 36.9866 119.453 33.2313C119.509 33.08 119.595 32.9417 119.706 32.8247C119.818 32.7078 119.951 32.6147 120.1 32.5512C120.248 32.4876 120.408 32.4549 120.569 32.455C120.73 32.4552 120.89 32.4881 121.038 32.552C121.233 32.7138 121.378 32.9267 121.458 33.1668C121.538 33.4068 121.55 33.6645 121.491 33.9107C120.925 38.3453 114.094 50.6491 102.262 50.6491C95.6569 50.6491 91.2033 44.4972 91.3166 38.4585C91.4298 27.136 102.941 15.8135 131.285 15.8135C137.314 15.832 143.33 16.3623 149.269 17.3986C163.174 20.0143 177.251 21.61 191.389 22.173C197.687 22.4027 203.994 22.1757 210.26 21.4936C216.525 20.4746 215.147 20.2481 217.657 20.2481C220.167 20.2481 219.941 21.1539 219.941 22.1352L219.978 22.0786Z" fill="white"/>
<path fill-rule="evenodd" clip-rule="evenodd" d="M263.456 74.577C263.004 74.577 262.211 75.596 261.758 76.1621C259.588 78.4455 250.605 87.7866 245.699 88.013C246.737 88.013 244.001 88.5792 243.812 86.409C243.972 84.982 244.477 83.6154 245.284 82.4273L269.646 39.2695H260.664L245.925 64.1602C244.793 61.8769 243.095 56.6119 236.377 56.4043C225.205 56.2911 220.884 63.9527 213.147 71.218C211.711 72.7776 209.957 74.0108 208.004 74.8345C206.05 75.6581 203.943 76.053 201.824 75.9923C200.97 76.0303 200.119 75.8744 199.334 75.5364C198.549 75.1984 197.85 74.6871 197.291 74.0407C196.732 73.3943 196.326 72.6297 196.105 71.8042C195.883 70.9787 195.851 70.1138 196.012 69.2742C196.465 66.3115 197.484 64.8396 199.654 64.047C200 65.419 200.817 66.6258 201.962 67.457C203.107 68.2882 204.507 68.6909 205.919 68.5949C207.555 68.4669 209.082 67.728 210.197 66.5252C211.313 65.3223 211.934 63.7437 211.939 62.1033C211.947 61.3051 211.793 60.5136 211.485 59.7771C211.177 59.0406 210.722 58.3747 210.148 57.82C209.574 57.2654 208.893 56.8337 208.146 56.5513C207.4 56.2689 206.603 56.1419 205.806 56.1779C201.598 55.9514 198.408 57.8951 193.842 63.1223C193.842 63.1223 194.993 55.3853 186.444 55.574C185.509 55.5034 184.571 55.6588 183.708 56.0269C179.047 57.5177 173.008 65.0283 168.234 70.8405C168.421 69.7122 168.497 68.5681 168.46 67.4249C168.5 63.8079 167.248 60.2954 164.932 57.5177C164.75 57.3441 164.533 57.2133 164.294 57.1349C164.056 57.0565 163.803 57.0326 163.554 57.0648C163.167 57.0907 162.79 57.1941 162.445 57.3688C162.099 57.5435 161.792 57.786 161.542 58.0818C161.292 58.3776 161.104 58.7206 160.989 59.0906C160.875 59.4605 160.835 59.8497 160.874 60.2351C162.489 62.1085 163.409 64.481 163.478 66.9531C163.476 70.2651 162.836 73.5457 161.591 76.615C157.27 84.0313 151.797 88.8056 145.193 87.7866C141.664 86.9751 139.267 83.5595 139.965 78.3511C140.541 74.9334 141.827 71.6742 143.74 68.7836C145.417 66.4223 147.55 64.4209 150.013 62.8976C152.476 61.3743 155.22 60.3599 158.081 59.9143C158.176 59.5519 158.173 59.171 158.074 58.8099C157.975 58.4488 157.782 58.1203 157.515 57.8574C157.284 57.4631 156.944 57.1445 156.535 56.9401C156.126 56.7357 155.667 56.6545 155.213 56.7062C145.532 57.0459 139.626 63.9904 136.191 70.8217C134.946 73.1994 133.134 76.615 132.096 78.7852C130.916 81.0869 129.152 83.0389 126.982 84.4464C124.812 86.1448 124.133 86.711 123.793 86.5977C124.025 87.7104 124.623 88.7134 125.491 89.4472C125.831 89.6737 126.982 88.9943 127.378 88.7679C132.719 85.6919 133.304 84.22 133.304 84.22C134.436 90.5795 139.909 93.8819 145.929 93.8819C154.251 93.8819 161.874 86.3335 166.309 79.7665C169.691 74.951 173.391 70.3677 177.386 66.0473C179.896 63.6696 182.519 62.0656 184.104 62.0656C184.439 62.0687 184.769 62.1467 185.07 62.2938C185.37 62.4409 185.635 62.6534 185.843 62.9157C186.051 63.178 186.197 63.4835 186.272 63.8099C186.347 64.1362 186.348 64.4751 186.274 64.8018C185.67 67.4519 184.671 69.9963 183.312 72.3502L170.914 93.3535H180.575C186.237 82.8802 186.388 82.5405 191.898 72.5955C193.37 78.2568 196.333 80.3326 201.107 80.4458C204.54 80.8136 208.008 80.2258 211.127 78.7474C210.401 81.5873 210.64 84.588 211.807 87.2771C212.486 89.0996 213.72 90.6629 215.335 91.7464C216.95 92.8298 218.864 93.3788 220.808 93.3158C226.244 93.2925 231.553 91.6715 236.075 88.6547C236.641 91.9571 238.226 93.6554 242.434 93.6554C250.983 93.429 258.493 84.6729 263.041 78.9739C263.856 78.0322 264.495 76.952 264.928 75.7847C264.834 75.0299 263.928 74.577 263.456 74.577ZM241.038 71.8407C238.783 75.5892 236.153 79.0984 233.188 82.314C226.13 89.485 221.563 87.0884 220.544 86.2958C219.86 85.3773 219.384 84.3208 219.149 83.1997C218.915 82.0787 218.927 80.92 219.185 79.8042C219.903 76.1218 221.459 72.6542 223.733 69.6705C227.828 64.6697 232.848 61.2541 236.83 61.707C241.717 62.2732 242.17 67.0664 239.792 71.501L241.038 71.8407Z" fill="white"/>
<path fill-rule="evenodd" clip-rule="evenodd" d="M160.082 39.8558C160.065 38.9104 159.712 38.002 159.086 37.2933C158.46 36.5845 157.603 36.1215 156.667 35.9872C153.024 35.4022 150.194 38.365 149.835 43.2714C149.874 44.1938 150.032 45.1073 150.307 45.9888C145.402 46.8137 140.457 47.3869 135.493 47.7061C140.144 39.4367 146.422 32.1955 153.949 26.4197C154.58 25.8525 155.15 25.2199 155.648 24.5326C155.744 24.3447 155.793 24.1363 155.79 23.9253C155.788 23.7143 155.734 23.507 155.634 23.3213C155.534 23.1356 155.39 22.9771 155.215 22.8594C155.039 22.7417 154.838 22.6683 154.629 22.6455C151.892 22.6455 138.683 32.4584 128.436 48.159C125.813 48.4986 114.886 49.4044 111.244 53.5183C110.921 53.958 110.69 54.4587 110.565 54.9902C110.791 55.896 111.471 56.3489 112.452 55.5563C114.717 52.9333 123.944 51.9143 126.115 51.7822C112.735 70.7097 100.318 83.0324 89.2786 83.0324C88.0975 83.1236 86.9095 83.0473 85.7498 82.8059C81.2962 81.7869 78.692 77.1446 78.692 72.8987C78.692 67.2374 84.0325 61.2931 87.1085 60.1608C88.1275 59.6891 88.5993 59.1229 88.5993 58.67C88.5993 58.2171 88.1275 57.5378 86.882 57.5378C76.2954 60.1608 70.5964 68.8603 70.7097 75.8614C70.955 87.4859 79.7111 93.9586 89.5806 93.9586C103.47 93.9586 110.527 87.9388 133.191 51.2727C142.174 50.3668 146.627 49.8007 151.175 48.9893C151.583 49.9308 152.246 50.7392 153.09 51.3229C153.934 51.9066 154.925 52.2422 155.949 52.2917C156.516 52.4049 156.402 51.8388 156.742 50.5933C155.27 50.4801 153.572 49.4422 153.572 48.1967C154.819 47.5808 156.001 46.8411 157.101 45.9888C158.774 44.3512 159.828 42.1836 160.082 39.8558ZM153.024 45.7624C152.569 44.3193 152.569 42.7708 153.024 41.3277C153.205 40.5859 153.607 39.9164 154.177 39.4076C154.746 38.8989 155.456 38.5748 156.214 38.4782C157.025 38.365 157.365 39.1575 157.478 39.8558C157.472 41.3728 156.9 42.8329 155.874 43.9507C154.176 45.8756 153.024 45.7624 153.024 45.7624Z" fill="white"/>
</svg>
