<svg width="387" height="140" viewBox="0 0 387 140" fill="none" xmlns="http://www.w3.org/2000/svg">
<path d="M230.462 42.8045C230.614 42.5061 230.699 42.1782 230.712 41.8435C230.712 41.5944 230.142 40.586 228.339 40.1826C226.773 39.7792 217.484 38.4149 212.548 47.194L210.496 51.2633C206.937 58.1917 200.72 69.474 195.322 75.8804C190.328 81.836 180.92 88.2661 176.435 88.4796C176.106 88.5093 175.775 88.472 175.461 88.3701C175.147 88.2681 174.857 88.1036 174.608 87.8864C174.257 87.3894 174.089 86.7854 174.134 86.1781C174.134 84.3511 175.118 80.8987 179.983 72.4755C184.93 63.6371 192.036 53.3394 197.92 44.24C197.92 44.1688 197.92 44.0858 197.992 44.0739L198.075 43.979C198.166 43.7426 198.226 43.4953 198.253 43.2434C198.243 42.94 198.162 42.6431 198.015 42.3774L197.802 42.1757L197.707 42.0215L197.529 41.8079H197.398L197.292 41.7012C194.917 40.5545 192.258 40.1309 189.644 40.4832C187.031 40.8354 184.579 41.9479 182.593 43.6824C176.091 49.46 163.884 68.347 160.396 81.5631C160.393 81.5915 160.385 81.6191 160.37 81.6438C160.356 81.6684 160.336 81.6895 160.313 81.7055C158.211 84.9241 155.547 87.7373 152.447 90.01C150.252 91.7659 148.342 92.0269 146.515 90.6032H146.396C145.958 90.3066 145.21 89.6185 145.21 87.3526C145.21 84.707 146.207 80.5903 150.62 72.0603L152.708 68.43L154.677 65.1912L156.955 61.6677C156.955 61.6677 158.699 59.0814 158.711 59.0814L164.026 50.9904C165.485 48.4635 166.636 46.6839 167.336 45.3077C167.529 45.0701 167.667 44.7923 167.738 44.4946C167.81 44.197 167.815 43.887 167.751 43.5875C167.616 43.2231 167.405 42.8911 167.133 42.6132C166.862 42.3352 166.535 42.1175 166.173 41.974C162.934 40.2182 157.359 39.3877 150.822 45.9839C150.782 46.0268 150.73 46.0573 150.674 46.0721C150.617 46.0868 150.557 46.085 150.501 46.067C150.444 46.0633 150.389 46.0449 150.342 46.0138C150.294 45.9826 150.255 45.9396 150.228 45.889C149.841 45.0357 149.393 44.2111 148.888 43.4214C147.939 42.3888 146.78 41.571 145.488 41.0227C144.197 40.4743 142.804 40.2081 141.402 40.2419C136.597 40.0521 127.023 42.2587 111.873 58.6781C105.111 66.0098 100.899 73.6975 99.2384 81.1004L99.1435 81.3733C98.4647 83.3626 98.2259 85.4755 98.4435 87.5661C98.5384 93.7708 100.816 99.2518 104.031 100.901C110.853 104.78 121.162 100.759 130.381 90.2236C130.439 90.1785 130.506 90.1476 130.578 90.1332C130.65 90.1188 130.725 90.1213 130.796 90.1405C130.867 90.1712 130.928 90.2226 130.971 90.2882C131.013 90.3537 131.035 90.4303 131.033 90.5083C131.686 95.3368 133.204 98.8129 135.778 100.782C140.216 103.784 145.032 103.452 151.201 99.7026C154.026 97.8782 156.488 95.545 158.462 92.8217C158.5 92.7464 158.565 92.6879 158.644 92.6572C158.722 92.6266 158.81 92.626 158.889 92.6556C158.967 92.672 159.039 92.7093 159.098 92.7637C159.156 92.818 159.199 92.8873 159.221 92.9641C159.617 95.902 161.098 98.5853 163.373 100.486C165.355 102.075 176.423 103.238 191.028 90.5083C191.056 90.4691 191.094 90.4372 191.137 90.4152C191.18 90.3932 191.228 90.3817 191.277 90.3817C191.325 90.3817 191.373 90.3932 191.416 90.4152C191.46 90.4372 191.497 90.4691 191.526 90.5083C191.602 90.5671 191.652 90.6524 191.668 90.7471C191.683 90.8417 191.662 90.9386 191.609 91.0184C184.835 103.938 165.509 134.214 133.18 132.541C131.893 132.442 130.664 131.967 129.646 131.174C128.627 130.381 127.865 129.305 127.454 128.082C127.042 126.858 127.001 125.541 127.333 124.294C127.666 123.047 128.359 121.925 129.325 121.069C129.484 120.849 129.59 120.596 129.635 120.328C129.68 120.061 129.663 119.787 129.586 119.527C129.527 119.285 129.41 119.061 129.245 118.874C129.079 118.688 128.87 118.546 128.637 118.459C126.538 117.584 124.187 117.529 122.049 118.304C119.911 119.08 118.143 120.63 117.093 122.647C116.302 124.191 115.909 125.908 115.95 127.642C115.992 129.376 116.466 131.073 117.33 132.577C118.161 134.06 121.637 138.841 131.887 139.778C138.733 140.442 152.838 140.122 168.498 131.474C184.479 122.528 197.731 107.746 208.776 86.9255C216.013 73.65 220.639 63.6371 224.032 56.5545C226.82 50.1955 228.541 45.9839 230.546 42.8519M131.009 74.9788C124.449 83.6748 117.959 87.0085 114.934 87.0085C114.139 87.0085 113.89 86.7712 113.748 86.5696C112.49 84.968 114.543 78.1108 125.422 63.7794C131.757 55.0715 137.665 50.9904 140.583 50.9904C141.354 50.9904 141.627 51.2158 141.77 51.4768C143.11 53.2089 141.248 60.8966 130.914 74.8838M102.809 55.641C98.3551 62.8231 94.3302 70.2628 90.7559 77.9209C89.2136 81.1716 87.8018 84.3511 86.4375 87.4119C79.2125 104.246 72.4146 120.44 50.8465 131.046C37.9269 137.571 23.3583 137.216 17.2248 133.123C14.3064 131.236 12.7522 128.614 12.9183 126.004C13.0844 123.394 14.7335 121.259 17.5807 119.729C19.3128 118.803 20.0365 118.803 20.3094 118.898C20.5822 118.993 20.606 120.084 20.6772 121.057C20.6166 123.002 21.0883 124.926 22.0415 126.621C22.8753 127.844 24.1514 128.695 25.6006 128.994C30.6664 130.323 39.1014 127.808 43.8588 124.771C58.4036 115.742 63.0305 102.894 67.3488 90.8168L69.8402 83.9121L70.8842 81.2665C70.9094 81.1756 70.9083 81.0794 70.881 80.9891C70.8537 80.8988 70.8014 80.8181 70.73 80.7564C70.6531 80.7234 70.5704 80.7064 70.4868 80.7064C70.4032 80.7064 70.3204 80.7234 70.2436 80.7564C63.1254 86.9373 51.6176 96.4046 40.5132 101.625C21.2703 111.341 11.1862 107.414 6.5238 102.408C-1.38927 94.3877 -0.202905 79.0836 3.28501 70.1502C26.9174 9.07606 91.1474 0.996902 98.5622 0.273218C110.236 -0.913149 120.059 1.80363 124.188 7.65242C131.092 17.7721 121.388 30.4069 111.494 33.0644C108.35 33.9305 97.3283 34.1796 96.8419 29.0308C96.2013 22.8379 113.119 20.0381 108.16 10.2862C107.199 8.25747 103.687 7.91342 97.9808 9.09979C76.0924 13.7859 35.6966 32.8865 20.4755 78.3243C18.9213 82.8206 17.3079 92.5133 22.2432 95.1589C31.568 100.343 61.5356 83.4613 82.8784 54.6919C94.9437 36.5405 109.975 42.2113 110.165 42.2825L110.426 42.3774C110.912 42.5909 111.612 42.8401 111.612 43.5638C111.766 44.7501 105.882 51.1446 102.786 55.6647M377.702 62.3084C381.784 56.5782 386.007 49.7091 386.707 48.6533C387.36 46.8856 384.844 45.5094 384.75 45.4975C380.929 43.0418 375.081 44.4535 369.884 49.2109C369.766 49.2702 369.671 49.3532 369.493 49.2702C369.436 49.2676 369.382 49.2446 369.34 49.2054C369.299 49.1662 369.273 49.1134 369.267 49.0566C368.794 48.1785 368.255 47.3377 367.654 46.5415C366.689 45.4979 365.512 44.6715 364.203 44.1172C362.894 43.5629 361.482 43.2934 360.061 43.3265C355.541 43.1367 345.742 45.3552 330.877 61.3949C324.998 68.1267 320.604 76.0214 317.981 84.5646C317.965 84.6159 317.939 84.6634 317.905 84.7042C317.87 84.745 317.827 84.7782 317.779 84.8019L317.447 85.0985C311.313 89.4999 302.25 93.6047 296.187 94.2335C294.172 94.3482 292.189 93.6858 290.647 92.3828C289.567 91.2913 288.488 88.1593 288.654 84.8849C288.667 84.7921 288.707 84.705 288.768 84.6337C288.829 84.5623 288.908 84.5096 288.998 84.4816C292.165 84.3511 297.302 83.2952 308.347 74.611C317.981 66.603 322.181 59.6865 322.181 53.1259V53.0072C322.074 48.5465 320.638 44.8806 317.506 42.7452C307.541 35.8998 290.303 48.0957 282.354 59.6865C280.859 61.727 272.08 75.4533 272.424 85.8815C272.626 92.5133 274.287 97.2587 278.202 100.96C285.32 108.15 303.626 105.124 317.091 94.103C317.15 94.0425 317.226 94.002 317.309 93.9871C317.392 93.9722 317.478 93.9837 317.554 94.0199C317.622 94.058 317.68 94.1128 317.721 94.1792C317.763 94.2456 317.787 94.3214 317.791 94.3996C318.645 98.8247 320.686 102.182 322.952 103.558C329.963 107.426 340 103.179 349.479 92.881C349.532 92.8231 349.601 92.7829 349.677 92.7659C349.754 92.7489 349.834 92.756 349.906 92.7861C349.972 92.8137 350.028 92.8598 350.068 92.9188C350.108 92.9777 350.13 93.0471 350.131 93.1183C350.784 97.9468 352.504 101.162 354.877 103.143C358.638 106.109 364.368 105.516 371.486 101.375C374.559 99.9162 381.297 95.4436 379.719 92.0387C378.616 89.666 374.974 91.2557 372.601 92.2048L371.569 92.5844H371.391C368.817 93.925 366.373 93.7708 365.234 93.1183C364.629 92.7268 364.047 91.7421 364.047 89.927C364.047 86.9492 365.329 82.5952 369.623 74.7178C372.044 70.3775 374.735 66.1933 377.679 62.1897M308.869 51.026C310.957 50.6938 311.99 51.4531 311.942 53.4699C311.859 56.4477 308.134 61.6677 302.641 66.7928C299.386 69.9294 295.644 72.5176 291.56 74.4568L291.074 74.7178C291.01 74.7577 290.936 74.7789 290.86 74.7789C290.785 74.7789 290.711 74.7577 290.647 74.7178C290.59 74.6567 290.549 74.5824 290.528 74.5016C290.508 74.4207 290.508 74.336 290.528 74.2551C295.203 59.3899 304.112 51.7971 308.869 51.0853M350.025 77.8142C343.262 85.6323 336.702 89.6778 333.937 89.749C333.721 89.7735 333.502 89.7488 333.297 89.6769C333.091 89.605 332.905 89.4878 332.751 89.3338C331.434 87.6373 333.487 80.614 344.164 66.6742C350.855 58.0493 356.597 54.0394 359.326 54.0156C359.546 54.0005 359.768 54.0352 359.973 54.1174C360.178 54.1996 360.363 54.327 360.512 54.4902C361.817 56.1867 360.002 63.91 350.001 77.8142M244.284 69.9723C238.47 81.2902 234.793 87.4238 228.766 98.4451C226.191 103.398 223.257 108.157 219.987 112.682C218.643 114.671 217.169 116.57 215.574 118.364C213.082 121.318 213.901 121.579 217.282 121.164C220.461 120.666 227.247 120.167 230.237 119.918C239.492 118.949 248.847 119.803 257.773 122.433C275.746 128.365 287.859 126.289 293.542 123.133C299.236 120.381 303.982 116.858 302.333 114.414C301.609 113.381 296.685 114.841 295.297 115.031C291.903 115.411 288.47 115.238 285.13 114.52C278.985 113.571 274.738 111.578 268.96 110.178C264.196 108.823 259.283 108.058 254.332 107.9C252.897 107.829 246.217 108.683 244.046 108.968C242.255 109.158 244.984 105.409 245.885 104.294C247.61 101.855 249.194 99.3202 250.631 96.7011C262.399 73.9348 273.741 49.7329 289.366 28.9003C303.448 10.559 313.093 6.0271 317.838 5.30341C322.584 4.57973 321.398 1.02063 316.949 0.913856C309.344 0.783356 286.4 6.65588 272.436 24.1311C265.354 33.0051 251.153 56.7443 244.284 69.9723Z" fill="white"/>
</svg>
