<svg width="400" height="120" viewBox="0 0 400 120" fill="none" xmlns="http://www.w3.org/2000/svg">
<path d="M74.0547 116.998L111.597 1.66992H177.742C175.123 12.7822 170.863 23.7723 167.823 35.1559C176.697 25.0205 185.15 12.6193 194.43 1.66992H258.607L214.375 61.4643L232.014 116.998H165.53C160.836 105.167 157.39 92.8336 152.668 81.0159C147.729 92.5216 143.876 105.072 139.48 116.998H74.0547Z" fill="white"/>
<path d="M239.856 83.7019C233.276 69.564 233.9 49.3476 243.33 36.7701C267.616 3.36553 309.04 -5.14164 348.346 2.72783C369.499 7.84298 393.311 22.4693 398.643 45.5622C403.826 69.0484 390.977 90.0247 371.385 103.104C342.892 122.384 299.786 125.586 268.376 110.526C257.278 105.343 245.107 95.2484 239.856 83.7019ZM308.592 84.6924C315.81 88.8849 327.343 81.8838 332.173 64.0147C333.774 56.7965 333.91 46.9325 327.289 41.8852C318.863 35.4811 307.724 45.9556 303.979 59.2795C300.668 72.5083 303.341 81.626 308.592 84.6924Z" fill="white"/>
<path d="M97.8939 1.72363H34.1241L0.0546875 116.821H60.6225L97.8939 1.72363Z" fill="white"/>
<path d="M0.0407041 116.876L0.0542722 116.821H0L0.0407041 116.876Z" fill="white"/>
</svg>
