<svg xmlns="http://www.w3.org/2000/svg" viewBox="0 0 200 153.48"><g id="Layer_2" data-name="Layer 2" fill="#fff"><g id="Layer_1-2" data-name="Layer 1"><path d="M149.53,24.27V51h14.85V24.27c0-14.85,1.63-19,7.25-20.65V1.27H142.28V3.62C147.72,5.25,149.53,9.42,149.53,24.27Z"/><path d="M164.38,105.05V96.68H149.53v8.37c0,14.85-1.81,19-7.25,20.65v2.36h29.35V125.7C166,124.07,164.38,119.9,164.38,105.05Z"/><path d="M59.77,51c-10.8-5.28-20-12.23-20-24.18,0-15.4,12.5-23.91,27.17-23.91,20.65,0,33.33,11.23,40,27l1.81-.55-.73-21C101,4.53,89.22,0,72.73,0,46.11,0,28.54,13.4,28.54,34.6c0,6.69,1.66,12,4.72,16.39Z"/><path d="M100.15,96.68a20.5,20.5,0,0,1,.84,5.84c0,14.67-12.5,24.09-27,24.09-22.83,0-36.28-13.27-43.86-29.93h-4L26.91,117c8.51,6.16,24.45,12.86,43.47,12.86,20.34,0,40.33-12.47,42.22-33.19Z"/><path d="M6.47,153.09c.5-.15.67-.54.67-1.92v-7.52c0-1.38-.17-1.77-.67-1.92v-.22H9.2v.22c-.52.15-.68.54-.68,1.92v7.52c0,1.38.16,1.77.68,1.92v.22H6.47Z"/><path d="M17.9,143.11v7.38c0,1.92.41,2.4,1.17,2.6v.22H17v-.22c.5-.15.67-.54.67-1.92v-7.52c0-1.38-.2-1.77-.87-1.92v-.22h1.65l7.36,9.54v-6.73c0-1.92-.4-2.39-1.16-2.59v-.22h2.12v.22c-.52.15-.67.54-.67,1.92v9.79h-.22Z"/><path d="M34.19,152.28l-.08-2.34.19,0a4.42,4.42,0,0,0,4.28,3.27,2.33,2.33,0,0,0,2.51-2.24c0-1.68-2.08-2.46-3.49-3-2-.8-3.25-1.5-3.25-3.29,0-2,1.63-3.22,4.11-3.22a6.75,6.75,0,0,1,3.28.78l.07,2-.17,0a3.82,3.82,0,0,0-3.72-2.51,2.28,2.28,0,0,0-2.53,2.23c0,1.58,1.74,2.22,3.17,2.81,1.87.74,3.62,1.48,3.62,3.39,0,2.1-2,3.39-3.94,3.39A7.26,7.26,0,0,1,34.19,152.28Z"/><path d="M52.1,153.09c.52-.15.68-.54.68-1.92v-9.39H52a2.5,2.5,0,0,0-2.75,1.62l-.18,0,.1-1.85H57.8l.1,1.85-.19,0A2.49,2.49,0,0,0,55,141.78h-.79v9.39c0,1.38.15,1.77.67,1.92v.22H52.1Z"/><path d="M63.93,153.09c.47-.15.89-.49,1.41-1.77l3.32-8.23a.88.88,0,0,0,0-.79l-.15-.35,1.26-.58,4.15,10c.52,1.27.92,1.61,1.28,1.76v.22H72.56v-.22c.52-.15.38-.49-.16-1.76l-1-2.47H66.62l-1,2.46c-.44,1.09-.37,1.65.2,1.77v.22h-1.9Zm7.34-4.49L69,143.06l-2.25,5.54Z"/><path d="M81.9,153.09c.51-.15.68-.54.68-1.92v-7.52c0-1.38-.17-1.77-.68-1.92v-.22h2.73v.22c-.52.15-.67.54-.67,1.92v8.63a.69.69,0,0,0,.76.76h2c1.62,0,2.36-.41,3-1.67l.19,0-.12,1.91H81.9Z"/><path d="M97.08,153.09c.51-.15.68-.54.68-1.92v-7.52c0-1.38-.17-1.77-.68-1.92v-.22h2.73v.22c-.52.15-.67.54-.67,1.92v8.63a.69.69,0,0,0,.76.76h2c1.62,0,2.36-.41,2.95-1.67l.19,0-.12,1.91H97.08Z"/><path d="M111.11,153.09c.47-.15.9-.49,1.42-1.77l3.32-8.23a.88.88,0,0,0,0-.79l-.16-.35,1.27-.58,4.14,10c.53,1.27.93,1.61,1.29,1.76v.22h-2.62v-.22c.53-.15.39-.49-.15-1.76l-1-2.47h-4.75l-1,2.46c-.44,1.09-.37,1.65.2,1.77v.22h-1.91Zm7.35-4.49-2.31-5.54-2.24,5.54Z"/><path d="M131.58,153.09c.53-.15.68-.54.68-1.92v-9.39h-.83a2.51,2.51,0,0,0-2.75,1.62l-.18,0,.1-1.85h8.68l.1,1.85-.18,0a2.5,2.5,0,0,0-2.75-1.62h-.79v9.39c0,1.38.15,1.77.67,1.92v.22h-2.75Z"/><path d="M144.55,153.09c.51-.15.68-.54.68-1.92v-7.52c0-1.38-.17-1.77-.68-1.92v-.22h2.74v.22c-.53.15-.68.54-.68,1.92v7.52c0,1.38.15,1.77.68,1.92v.22h-2.74Z"/><path d="M155,147.39a6,6,0,1,1,6,6.09A5.78,5.78,0,0,1,155,147.39Zm6.71,5.66c2.7,0,4-2,3.95-4.48-.12-3.52-2.33-6.81-5.35-6.81-2.56,0-4.06,1.91-4,4.65C156.51,149.8,158.74,153.05,161.75,153.05Z"/><path d="M175.72,143.11v7.38c0,1.92.4,2.4,1.16,2.6v.22h-2.11v-.22c.51-.15.68-.54.68-1.92v-7.52c0-1.38-.2-1.77-.88-1.92v-.22h1.65l7.37,9.54v-6.73c0-1.92-.4-2.39-1.16-2.59v-.22h2.12v.22c-.52.15-.67.54-.67,1.92v9.79h-.22Z"/><path d="M192,152.28l-.08-2.34.18,0a4.44,4.44,0,0,0,4.28,3.27,2.32,2.32,0,0,0,2.51-2.24c0-1.68-2.07-2.46-3.48-3-2-.8-3.26-1.5-3.26-3.29,0-2,1.64-3.22,4.11-3.22a6.79,6.79,0,0,1,3.29.78l.07,2-.17,0a3.82,3.82,0,0,0-3.72-2.51,2.28,2.28,0,0,0-2.53,2.23c0,1.58,1.73,2.22,3.17,2.81,1.87.74,3.62,1.48,3.62,3.39,0,2.1-2,3.39-3.94,3.39A7.23,7.23,0,0,1,192,152.28Z"/><path d="M21.75,67.11l-.53-.3a2.05,2.05,0,0,0,.06-.46c0-.43-3.13-2.77-8.56-2.77-5.19,0-7.42,1.6-7.42,3.67,0,5.46,19.61-2.53,19.61,9.52,0,4.4-4.26,7.8-12.79,7.8C4,84.57,1.67,82,.9,82c-.2,0-.3.17-.47.27L0,82.14l2.76-5.67.54.27c0,.13-.07.27-.07.53,0,2,4.3,3.37,8.56,3.37,6.06,0,8.13-1.73,8.13-3.57,0-6.53-19.35,1.57-19.35-9.49,0-5.6,5.89-7.93,12.35-7.93a25.12,25.12,0,0,1,10.26,2.53c.43,0,.5-.13.6-.23l.53.17Z"/><path d="M38.37,63.92v.46c-.47,0-.6.24-.6.8V77.37c0,3,2.06,3.93,6.26,3.93s6.26-1,6.26-3.93V65.18c0-.56-.13-.8-.66-.8v-.46h5.42v.46c-.56,0-.7.24-.7.8V77.24c0,5.66-4.06,7.33-10.32,7.33S33.7,82.9,33.7,77.24V65.18c0-.56-.1-.8-.76-.8v-.46Z"/><path d="M86.49,81.1l-.56.27a1,1,0,0,0-.47-.1c-.6,0-2.33,3.3-10.52,3.3C69,84.57,63,81.24,63,74.24,63,68,68.54,63.58,75.94,63.58a18.67,18.67,0,0,1,8.79,2.17c.2,0,.23-.07.36-.13l.6.23-2.43,4.46-.6-.3a.88.88,0,0,0,.14-.43c0-.6-2.87-2.73-7.26-2.73s-8.46,2.53-8.46,7.23c0,5.29,4.19,7.22,8.19,7.22,4.46,0,8.09-2.33,8.09-3.36a1.41,1.41,0,0,0-.06-.43l.53-.27Z"/><path d="M116.2,81.1l-.56.27a1,1,0,0,0-.47-.1c-.6,0-2.33,3.3-10.53,3.3-5.92,0-11.92-3.33-11.92-10.33,0-6.26,5.53-10.66,12.92-10.66a18.68,18.68,0,0,1,8.8,2.17c.2,0,.23-.07.36-.13l.6.23L113,70.31l-.6-.3a.87.87,0,0,0,.13-.43c0-.6-2.86-2.73-7.26-2.73s-8.46,2.53-8.46,7.23c0,5.29,4.2,7.22,8.2,7.22,4.46,0,8.09-2.33,8.09-3.36a1.12,1.12,0,0,0-.07-.43l.54-.27Z"/><path d="M143,84.63c0-.3-.3-.4-1-.4H123.76v-.46c.5,0,.6-.2.6-.8V65.18c0-.6-.1-.8-.6-.8v-.46h18c.7,0,1-.17,1-.4h.46v4.26h-.46c0-.33-.27-.6-1-.6H128.42v5.13h8.7c.66,0,.93-.17.93-.47h.46V76h-.46c0-.2-.27-.47-.93-.47h-8.7V81h13.63c.66,0,1-.17,1-.47h.47v4.13Z"/><path d="M168.79,70l-.47-.3v-.4c0-.9-3.43-2.4-7.19-2.4s-6.2.86-6.2,2.73c0,5.06,16.32-1.63,16.32,8.29,0,4.4-4.19,6.7-10.72,6.7a18.65,18.65,0,0,1-6.76-1,18.71,18.71,0,0,0-2.4-1,1.06,1.06,0,0,0-.5.14l-.43-.2L152.9,78l.44.27c0,.1,0,.23,0,.4,0,1.16,4,2.66,8.13,2.66s6-1.43,6-3.36c0-4.73-16.32,1-16.32-7.43,0-3.66,3-6.93,9.93-6.93a19,19,0,0,1,6.66,1.1c1.33.44,2.3,1.1,2.5,1.1a.78.78,0,0,0,.36-.16l.47.16Z"/><path d="M196.63,70l-.46-.3v-.4c0-.9-3.44-2.4-7.2-2.4s-6.19.86-6.19,2.73c0,5.06,16.32-1.63,16.32,8.29,0,4.4-4.2,6.7-10.73,6.7a18.65,18.65,0,0,1-6.76-1,18.71,18.71,0,0,0-2.4-1,1.06,1.06,0,0,0-.5.14l-.43-.2L180.74,78l.44.27c0,.1,0,.23,0,.4,0,1.16,4,2.66,8.13,2.66s6-1.43,6-3.36c0-4.73-16.32,1-16.32-7.43,0-3.66,3-6.93,9.93-6.93a19,19,0,0,1,6.66,1.1c1.33.44,2.3,1.1,2.5,1.1a.78.78,0,0,0,.36-.16l.47.16Z"/></g></g></svg>