<svg width="416" height="100" viewBox="0 0 416 100" fill="none" xmlns="http://www.w3.org/2000/svg">
<path fill-rule="evenodd" clip-rule="evenodd" d="M24.5149 41.4851C24.5149 41.4851 24.5149 63.6432 0.892191 63.2653L0.443359 83.2265C0.443359 83.2265 38.2397 85.0927 43.2005 44.3907C43.2005 44.3907 42.8462 17.886 68.0044 19.705V0.0508504C68.0044 0.0508504 28.1056 -3.16184 24.5149 41.4851Z" fill="white"/>
<path fill-rule="evenodd" clip-rule="evenodd" d="M183.708 63.974C190.795 67.9663 197.386 59.2495 197.386 59.2495L210.685 67.6355C208.533 71.7696 205.349 75.2774 201.442 77.8187C197.535 80.3599 193.037 81.8485 188.386 82.1399C163.96 82.8722 158.219 60.3597 158.574 53.7926C158.928 47.2255 162.849 26.8627 184.559 25.4454C207.567 24.0044 213.308 46.1389 213.308 46.1389L183.708 63.974ZM175.795 52.0209L191.268 43.6821C189.896 42.5169 188.207 41.7885 186.418 41.5907C184.629 41.3928 182.821 41.7345 181.228 42.5718C175.464 45.4774 175.795 48.95 175.795 52.0209Z" fill="white"/>
<path fill-rule="evenodd" clip-rule="evenodd" d="M235.113 50.5577L224.341 25.5176H206.719L225.404 68.3456L206.79 100H225.192L265.043 25.6593H248.177L235.113 50.5577Z" fill="white"/>
<path fill-rule="evenodd" clip-rule="evenodd" d="M263.505 52.7283C263.505 52.7283 263.151 66.9019 248.41 65.083V81.4063C248.41 81.4063 275.718 85.7765 279.687 55.2796C279.687 55.2796 278.954 41.1059 294.427 41.1059V24.7826C294.427 24.7826 266.08 22.6093 263.505 52.7283Z" fill="white"/>
<path fill-rule="evenodd" clip-rule="evenodd" d="M44.5944 53.7213C44.8306 69.3123 57.1145 82.0685 72.0204 82.0685C79.3427 81.938 86.3151 78.9116 91.411 73.6518C96.5069 68.3921 99.3113 61.3275 99.2102 54.0047C99.3111 46.6909 96.5038 39.6362 91.4052 34.3915C86.3067 29.1468 79.3342 26.1412 72.0204 26.0354C68.3923 26.0194 64.7974 26.7265 61.4457 28.1154C58.094 29.5043 55.0526 31.5472 52.4993 34.1247C49.9459 36.7022 47.9318 39.7627 46.5746 43.1274C45.2173 46.4921 44.5442 50.0935 44.5944 53.7213ZM61.3902 54.3827C61.3902 48.477 65.0281 42.3587 72.5637 42.3587C74.0788 42.3018 75.5889 42.5647 76.9956 43.1303C78.4023 43.6958 79.6741 44.5513 80.7282 45.6411C81.7823 46.7308 82.5951 48.0304 83.1135 49.4552C83.632 50.8799 83.8445 52.3979 83.7373 53.9102C83.7154 56.9024 82.5427 59.7714 80.4624 61.9222C78.382 64.073 75.5535 65.3404 72.5637 65.4618C69.6241 65.4375 66.8103 64.2654 64.7228 62.1956C62.6353 60.1257 61.4394 57.322 61.3902 54.3827Z" fill="white"/>
<path fill-rule="evenodd" clip-rule="evenodd" d="M368.65 40.6355C373.898 40.5055 378.881 38.2982 382.504 34.4983C386.127 30.6983 388.094 25.6161 387.973 20.3672C388.103 17.7493 387.699 15.1323 386.786 12.6752C385.873 10.218 384.471 7.97193 382.664 6.07326C380.857 4.17459 378.683 2.66291 376.274 1.63C373.865 0.597077 371.271 0.0644531 368.65 0.0644531C366.029 0.0644531 363.435 0.597077 361.026 1.63C358.617 2.66291 356.443 4.17459 354.635 6.07326C352.828 7.97193 351.426 10.218 350.513 12.6752C349.601 15.1323 349.197 17.7493 349.326 20.3672C349.264 22.9671 349.714 25.5538 350.651 27.9796C351.588 30.4054 352.994 32.6228 354.789 34.505C356.583 36.3872 358.731 37.8975 361.109 38.9494C363.488 40.0013 366.05 40.5742 368.65 40.6355Z" fill="white"/>
<path fill-rule="evenodd" clip-rule="evenodd" d="M398.769 28.5398C396.184 28.2785 393.574 28.5289 391.087 29.2768C388.599 30.0247 386.284 31.2553 384.272 32.8984C382.26 34.5415 380.592 36.5649 379.363 38.8529C378.133 41.141 377.367 43.6488 377.107 46.2332C376.646 48.8157 376.716 51.4649 377.312 54.0196C377.907 56.5744 379.016 58.9813 380.571 61.0941C382.126 63.207 384.094 64.9815 386.356 66.31C388.618 67.6384 391.127 68.493 393.729 68.8217C396.332 69.1504 398.974 68.9465 401.495 68.2222C404.017 67.4979 406.364 66.2685 408.396 64.6086C410.427 62.9488 412.099 60.8932 413.311 58.5667C414.524 56.2403 415.25 53.6917 415.446 51.0758C416.212 45.8775 414.887 40.5877 411.761 36.3641C408.635 32.1405 403.964 29.3272 398.769 28.5398Z" fill="white"/>
<path fill-rule="evenodd" clip-rule="evenodd" d="M365.958 96.9022C371.179 97.3888 376.38 95.7842 380.419 92.4404C384.458 89.0967 387.006 84.287 387.502 79.0671C387.954 76.4786 387.874 73.8252 387.267 71.2686C386.66 68.7121 385.539 66.306 383.971 64.1971C382.404 62.0882 380.423 60.3208 378.15 59.0025C375.877 57.6843 373.359 56.8428 370.75 56.5296C368.141 56.2163 365.496 56.4378 362.975 57.1805C360.455 57.9231 358.112 59.1715 356.09 60.8493C354.068 62.5272 352.409 64.5994 351.213 66.9395C350.018 69.2797 349.313 71.8387 349.139 74.4606C348.403 79.6654 349.76 84.9496 352.913 89.1559C356.065 93.3622 360.756 96.1477 365.958 96.9022Z" fill="white"/>
<path fill-rule="evenodd" clip-rule="evenodd" d="M339.55 28.1395C334.333 28.5735 329.498 31.0515 326.1 35.0337C322.702 39.0159 321.015 44.1796 321.407 49.3999C321.435 52.0088 321.991 54.585 323.041 56.9732C324.091 59.3615 325.614 61.5124 327.518 63.2962C329.422 65.08 331.667 66.4598 334.118 67.3524C336.57 68.245 339.177 68.632 341.782 68.4899C344.387 68.3478 346.936 67.6797 349.276 66.5258C351.616 65.3719 353.698 63.7561 355.397 61.7758C357.095 59.7955 358.375 57.4918 359.159 55.0035C359.944 52.5152 360.216 49.8939 359.96 47.2975C359.88 44.6986 359.289 42.1408 358.22 39.7706C357.151 37.4004 355.624 35.2644 353.729 33.4849C351.833 31.7053 349.604 30.3172 347.171 29.4C344.738 28.4827 342.148 28.0544 339.55 28.1395Z" fill="white"/>
<path fill-rule="evenodd" clip-rule="evenodd" d="M117.871 28.3962V7.13574H101.642V53.6725C101.56 61.057 104.394 68.176 109.529 73.4835C114.664 78.791 121.685 81.8585 129.068 82.0198C136.399 81.914 143.388 78.9049 148.503 73.6527C153.618 68.4005 156.441 61.334 156.353 54.0032C156.476 49.3855 155.426 44.812 153.299 40.7113C151.172 36.6106 148.039 33.1169 144.193 30.5578C140.348 27.9987 135.915 26.458 131.311 26.0799C126.707 25.7018 122.083 26.4988 117.871 28.3962ZM118.415 54.3812C118.415 48.4755 122.076 42.3572 129.612 42.3572C131.127 42.3003 132.637 42.5632 134.044 43.1288C135.45 43.6943 136.722 44.5498 137.776 45.6396C138.83 46.7293 139.643 48.0289 140.161 49.4537C140.68 50.8784 140.892 52.3964 140.785 53.9087C140.763 56.9009 139.591 59.7699 137.51 61.9207C135.43 64.0715 132.602 65.3389 129.612 65.4603C126.668 65.4422 123.848 64.2728 121.756 62.2023C119.663 60.1318 118.464 57.3246 118.415 54.3812Z" fill="white"/>
</svg>
