<svg width="756" height="120" viewBox="0 0 756 120" fill="none" xmlns="http://www.w3.org/2000/svg">
<path d="M42.2515 87.0998C44.3794 79.19 46.5116 71.2925 48.6478 63.4074C50.4541 56.7512 54.2028 53.9551 61.1807 54.0046C67.7007 54.0046 71.6721 57.1224 73.4166 63.5311C75.4704 71.3378 77.5983 79.1817 80.2336 86.939C81.4295 80.6457 82.6338 74.3484 83.8462 68.0469C84.5638 64.3353 85.0834 64.0878 88.0403 66.2406C90.1318 67.8203 92.5572 68.9003 95.1306 69.3978C97.704 69.8953 100.357 69.7972 102.887 69.1109C106.029 68.3191 106.598 68.8263 105.708 71.8327C102.045 84.7739 98.3339 97.7067 94.5728 110.631C94.0603 112.696 92.9352 114.557 91.3453 115.97C89.7555 117.383 87.7752 118.283 85.6649 118.549C83.4311 118.945 81.1524 119.02 78.8974 118.772C73.5156 118.265 69.9524 115.518 68.4802 110.211C66.3192 102.194 64.1128 94.189 61.8611 86.1966C61.739 85.0983 61.3102 84.0564 60.6239 83.1902C58.3722 91.2939 56.1947 99.1749 54.0049 107.056C53.5595 108.639 53.1141 110.223 52.6068 111.782C52.3768 112.463 52.0608 113.111 51.6666 113.712C47.8684 119.44 42.0659 119.218 36.3747 118.772C34.1853 118.707 32.0793 117.917 30.3868 116.527C28.6942 115.137 27.5106 113.224 27.0215 111.089C20.0849 87.6813 13.1401 64.261 6.18699 40.8284C5.89326 39.9374 5.8934 38.9756 6.18741 38.0847C6.48141 37.1938 7.05374 36.4208 7.8201 35.8796C9.76614 34.0128 12.1592 32.6773 14.7698 32.0014C17.3804 31.3255 20.1209 31.3317 22.7284 32.0195C28.1968 33.3928 30.4362 37.7973 31.5744 42.8574C34.7004 56.6811 37.8181 70.5007 40.9277 84.3161C41.1256 85.2069 41.3854 86.0853 41.6205 86.9637L42.2515 87.0998Z" fill="white"/>
<path d="M426.526 111.795C425.882 113.418 424.885 114.879 423.609 116.071C422.333 117.264 420.809 118.159 419.146 118.692C417.483 119.226 415.722 119.384 413.991 119.156C412.259 118.929 410.6 118.32 409.131 117.375C405.815 115.16 405.419 111.622 405.419 108.071C405.419 94.4618 405.419 80.766 405.419 67.1073C405.419 60.2284 405.494 53.3496 405.419 46.4707C405.331 45.5551 405.586 44.6393 406.135 43.901C406.683 43.1626 407.487 42.6543 408.389 42.4745C418.014 39.2949 425.994 44.5159 426.625 54.661C426.91 59.449 426.625 64.2741 426.625 69.0373C427.157 69.0373 427.417 69.1858 427.528 69.0991C440.878 57.7045 460.005 63.0245 465.077 79.8628C468.418 90.9976 467.762 101.86 460.413 111.486C457.477 115.107 453.5 117.739 449.019 119.027C444.539 120.315 439.771 120.196 435.36 118.686C432.378 117.61 431.067 116.595 426.526 111.795ZM446.631 91.4678C446.659 88.681 445.853 85.9495 444.317 83.6239C443.034 81.9379 441.249 80.7025 439.219 80.0955C437.19 79.4885 435.019 79.5414 433.021 80.2463C431.138 80.7452 429.484 81.8799 428.341 83.4582C427.198 85.0364 426.635 86.9613 426.749 88.9068C426.749 90.7502 426.662 92.6184 426.749 94.4371C427.12 99.3116 429.854 102.33 434.457 103.097C441.348 104.236 446.631 99.1261 446.631 91.4678Z" fill="white"/>
<path d="M270.478 69.0501V47.8568C270.478 43.3534 270.738 43.0317 275.031 42.1038C284.867 39.9882 291.597 45.6298 291.758 56.3687C291.907 66.6252 291.758 76.8939 291.758 87.1627C291.758 94.3509 291.758 101.527 291.758 108.715C291.758 112.426 291.065 116.138 287.23 117.796C285.124 118.787 282.807 119.246 280.482 119.134C278.156 119.022 275.894 118.342 273.893 117.153C272 116.027 271.555 113.874 270.862 112.055C270.77 111.993 270.666 111.952 270.557 111.935C270.448 111.918 270.336 111.925 270.23 111.955C270.124 111.986 270.026 112.04 269.942 112.113C269.859 112.185 269.793 112.276 269.748 112.377C262.461 123.252 245.66 121.433 237.829 112.661C231.197 105.238 229.737 96.2933 230.64 86.7668C230.914 83.8999 231.572 81.0828 232.595 78.391C238.509 63.0002 256.535 58.2122 269.303 68.6294C269.677 68.8142 270.072 68.9554 270.478 69.0501ZM270.478 90.0825C270.676 87.4473 270.738 84.1439 267.484 81.7438C266.173 80.754 264.646 80.0895 263.028 79.805C261.41 79.5205 259.748 79.6241 258.178 80.1072C256.608 80.5903 255.174 81.4392 253.996 82.584C252.818 83.7289 251.929 85.137 251.401 86.6926C250.283 90.0331 250.402 93.6637 251.735 96.9242C252.567 99.094 254.145 100.897 256.185 102.01C258.225 103.123 260.595 103.473 262.87 102.999C267.67 102.108 270.293 98.8295 270.417 93.5962C270.491 92.792 270.478 91.8393 270.478 90.1196V90.0825Z" fill="white"/>
<path d="M681.255 111.349C672.087 124.723 654.371 120.442 647.257 111.349C639.326 101.191 638.869 82.5096 646.601 72.2161C648.47 69.788 650.801 67.7532 653.459 66.2287C656.117 64.7042 659.051 63.7199 662.09 63.3325C665.13 62.945 668.216 63.1621 671.172 63.9711C674.127 64.7801 676.894 66.1652 679.313 68.0467C679.696 68.3436 680.105 68.6158 680.55 68.9127C681.441 68.0343 681.094 67.0569 681.094 66.2032C681.094 59.7203 681.218 53.2497 681.094 46.7792C681.032 44.2305 682.109 43.0676 684.398 42.4118C693.837 39.591 701.397 44.5398 702.238 54.4374C702.411 56.4788 702.399 58.545 702.399 60.6235C702.399 75.6349 702.399 90.6339 702.399 105.621C702.399 107.167 702.399 108.714 702.3 110.248C701.916 115.741 698.972 118.599 693.429 118.908C692.91 118.908 692.39 118.908 691.883 118.908C685.499 118.945 683.445 117.535 681.255 111.349ZM681.094 90.9226C680.859 88.4482 681.738 85.4912 679.449 83.0168C674.339 77.4989 664.8 79.1568 662.215 86.2088C660.836 89.8115 660.933 93.8127 662.487 97.3436C663.386 99.4993 665.031 101.259 667.121 102.302C669.211 103.345 671.606 103.601 673.869 103.022C679.152 101.785 681.082 98.618 681.094 90.9102V90.9226Z" fill="white"/>
<path d="M553.922 111.349C547.637 118.537 539.855 120.591 530.923 118.97C523.685 117.647 519.169 112.97 518.093 105.868C517.14 99.5462 520.221 93.8551 526.654 90.5641C533.62 87.001 541.216 86.4195 548.862 86.0731C550.099 86.0112 551.992 86.803 552.499 85.3679C553.118 83.5739 552.165 81.7676 550.767 80.4191C547.377 77.0539 539.274 77.8704 535.921 81.9037C532.927 85.5287 527.904 86.0978 523.475 83.3141C520.109 81.2109 519.082 76.9302 521 72.6247C521.59 71.1872 522.47 69.8869 523.586 68.8054C524.701 67.7239 526.028 66.8845 527.483 66.3397C539.41 61.9476 551.51 61.3909 563.288 66.5377C571.639 70.1503 573.94 77.7962 574.113 86.1226C574.311 95.6738 574.113 105.225 574.188 114.776C574.281 115.698 574.018 116.621 573.452 117.356C572.885 118.09 572.06 118.579 571.144 118.723C563.473 120.937 557.856 118.649 553.922 111.349ZM548.899 95.5129C545.903 95.4214 542.93 96.0627 540.239 97.3811C539.406 97.7995 538.72 98.4588 538.267 99.273C537.815 100.087 537.618 101.019 537.702 101.946C537.698 102.768 537.928 103.574 538.366 104.269C538.805 104.964 539.433 105.519 540.177 105.868C541.343 106.391 542.606 106.662 543.883 106.663C545.161 106.665 546.425 106.397 547.592 105.878C548.759 105.358 549.804 104.599 550.658 103.648C551.512 102.698 552.156 101.579 552.549 100.363C553.712 96.181 553.031 95.3274 548.899 95.4758V95.5129Z" fill="white"/>
<path d="M189.888 72.2036C194.242 66.5372 199.55 63.2339 206.615 63.0978C218.195 62.9617 225.717 69.5065 226.261 81.062C226.719 90.7988 226.533 100.573 226.336 110.322C226.224 115.716 223.094 118.524 217.675 118.859C216.747 118.859 215.819 118.859 214.891 118.859C208.408 118.685 205.241 115.592 205.155 109.097C205.068 102.008 205.241 94.9186 205.08 87.8418C204.944 81.3589 199.501 78.4391 193.834 81.6558C192.91 82.0993 192.137 82.8051 191.611 83.6851C191.085 84.5652 190.83 85.5806 190.877 86.6046C190.877 94.498 191.298 102.416 190.593 110.309C190.098 115.926 187.24 118.661 181.672 118.871C179.719 119.024 177.753 118.903 175.833 118.512C174.354 118.235 172.994 117.515 171.934 116.448C170.873 115.381 170.162 114.017 169.894 112.536C169.6 111.233 169.447 109.901 169.437 108.565C169.437 95.2156 169.437 81.8662 169.437 68.5167C169.323 67.5588 169.578 66.5936 170.15 65.817C170.723 65.0404 171.569 64.5105 172.517 64.335C179.965 62.108 185.347 64.3968 189.888 72.2036Z" fill="white"/>
<path d="M600.576 72.1174C605.154 66.1541 610.808 63.0116 618.206 63.123C628.277 63.2838 635.391 69.0368 636.591 79.0582C637.653 89.5854 637.732 100.189 636.826 110.731C636.43 116.743 633.115 118.958 626.372 118.933C619.629 118.908 616.474 116.669 615.967 110.644C615.546 105.695 615.744 100.598 615.695 95.5748C615.695 93.0014 615.695 90.4404 615.695 87.867C615.695 84.9349 614.854 82.3491 611.897 81.0377C609.212 79.8005 604.906 80.8768 602.692 82.9925C602.222 83.4798 601.867 84.066 601.653 84.7082C601.439 85.3504 601.371 86.0323 601.455 86.7041C601.455 93.6819 601.455 100.66 601.455 107.65C601.393 117.473 593.71 122.212 584.703 117.956C580.991 116.211 580.162 112.908 580.162 109.221C580.162 98.0368 580.162 86.8443 580.162 75.6435C580.162 73.1691 580.274 70.6947 580.162 68.2203C580.039 66.0675 581.066 65.0778 582.971 64.5086C590.295 62.0466 595.405 64.1622 600.576 72.1174Z" fill="white"/>
<path d="M135.796 63.0986C148.564 63.0986 158.474 69.2846 162.656 79.6276C167.209 90.948 164.846 104.644 156.47 112.154C147.215 120.505 136.142 121.507 124.649 118.34C114.541 115.507 108.429 108.442 106.474 98.2104C102.75 78.4647 114.813 62.8512 135.796 63.0986ZM124.166 91.3068C124.166 98.5445 128.546 103.308 135.301 103.345C142.056 103.382 146.56 98.5073 146.572 91.4305C146.584 84.3537 141.994 79.3678 135.437 79.3678C128.88 79.3678 124.166 84.23 124.166 91.3563V91.3068Z" fill="white"/>
<path d="M326.054 63.0986C340.121 63.0986 350.65 72.1673 352.629 85.9745C353.235 90.1439 352.208 91.5914 348.014 92.3337C338.405 94.0163 328.801 95.6907 319.2 97.3568C318.21 97.53 316.849 97.3568 316.478 98.396C316.107 99.4353 317.171 100.45 317.901 101.279C323.01 107.131 334.888 105.893 339.564 98.8043C340.975 96.6639 342.237 95.3896 344.921 95.8721C348.138 96.4536 350.909 97.5671 352.085 100.908C352.588 102.32 352.739 103.834 352.523 105.317C352.307 106.801 351.732 108.209 350.848 109.42C348.762 112.388 345.824 114.653 342.422 115.915C333.576 119.54 324.446 121.222 315.018 118.55C304.353 115.556 297.301 105.992 296.534 94.14C295.384 76.0398 307.694 63.0986 326.054 63.0986ZM324.235 76.9553C321.797 76.9278 319.433 77.7933 317.59 79.3887C315.746 80.9841 314.549 83.199 314.226 85.6157C314.09 86.8529 314.103 87.9788 315.884 87.6571C321.031 86.7292 326.178 85.7766 331.324 84.8858C332.772 84.6383 332.871 83.995 332.463 82.7578C331.882 81.0445 330.772 79.5597 329.294 78.517C327.815 77.4743 326.044 76.9275 324.235 76.9553Z" fill="white"/>
<path d="M728.973 119.565C724.024 119.441 718.271 119.045 712.89 116.571C708.968 114.752 706.357 111.993 706.308 107.378C706.3 104.985 707.238 102.686 708.918 100.982C710.329 99.3984 711.529 99.1757 713.36 100.561C717.869 103.903 723.363 105.644 728.973 105.51C731.188 105.51 734.33 105.782 734.751 102.726C735.172 99.6706 732.017 99.6459 729.988 99.0149C726.276 97.889 722.329 97.4436 718.643 96.0703C712.333 93.7197 708.102 89.6369 707.644 82.6219C707.161 75.1987 710.032 69.3715 716.861 66.2909C721.755 64.0603 727.068 62.8989 732.447 62.8839C737.825 62.869 743.145 64.0009 748.051 66.2043C755.474 69.322 756.711 77.4504 751.292 82.523C749.87 83.8344 748.818 84.119 747.086 82.6962C743.453 79.5974 738.949 77.7 734.194 77.2649C732.451 77.0857 730.69 77.3275 729.06 77.9701C728.505 78.1264 728.018 78.4629 727.675 78.9265C727.332 79.3902 727.154 79.9547 727.167 80.5311C727.21 81.0518 727.424 81.5437 727.775 81.9307C728.126 82.3176 728.595 82.578 729.109 82.6714C731.683 83.4138 734.281 84.0571 736.879 84.6757C740.209 85.3469 743.466 86.3413 746.603 87.645C752.505 90.305 755.932 94.7465 755.957 101.254C755.981 107.762 753.111 113.144 746.95 116.237C741.543 118.996 735.728 119.59 728.973 119.565Z" fill="white"/>
<path d="M491.48 71.6847C496.589 64.1254 501.526 61.7871 508.145 63.5934C512.76 64.8306 515.432 68.0473 516.063 73.1075C516.632 77.6604 514.281 82.8195 510.805 84.8857C510.289 85.205 509.688 85.3595 509.083 85.3285C508.477 85.2976 507.895 85.0827 507.415 84.7125C499.831 80.4689 493.533 83.7351 492.878 92.445C492.482 97.6536 492.729 102.912 492.68 108.145C492.68 111.943 492.259 115.828 488.362 117.672C486.278 118.711 483.971 119.226 481.643 119.172C479.314 119.118 477.034 118.497 475 117.362C472.439 115.964 471.499 113.317 471.486 110.533C471.375 96.2679 471.375 82.003 471.375 67.738C471.349 67.02 471.574 66.3154 472.013 65.7461C472.451 65.1767 473.074 64.7785 473.775 64.6203C480.53 61.9479 486.989 64.1749 490.688 70.4846C490.873 70.8187 491.17 71.128 491.48 71.6847Z" fill="white"/>
<path d="M377.794 71.87C380.899 65.6222 385.527 62.6529 392.158 63.2096C394.492 63.3024 396.726 64.1797 398.5 65.6997C400.274 67.2196 401.483 69.2933 401.932 71.5855C403.083 76.9178 400.967 82.51 396.983 84.8854C396.471 85.21 395.873 85.3708 395.267 85.3465C394.661 85.3222 394.077 85.1139 393.593 84.7493C385.824 80.481 379.501 83.9204 379.031 92.7664C378.759 97.9874 378.883 103.221 378.821 108.454C378.821 112.302 378.202 116.137 374.268 117.832C372.162 118.83 369.844 119.296 367.516 119.188C365.189 119.08 362.923 118.402 360.919 117.214C358.444 115.791 357.702 113.23 357.69 110.57C357.628 96.3048 357.69 82.0398 357.615 67.7873C357.56 67.0143 357.798 66.2488 358.282 65.6435C358.765 65.0381 359.46 64.6373 360.226 64.521C365.793 62.8879 373.501 63.1106 376.804 70.5338C377.099 71.0046 377.43 71.4514 377.794 71.87Z" fill="white"/>
<path d="M56.739 19.6606C56.7587 15.3446 58.4912 11.213 61.5559 8.17386C64.6205 5.13474 68.7665 3.4368 73.0825 3.45324C77.4524 3.47612 81.6357 5.22727 84.7187 8.32423C87.8018 11.4212 89.5341 15.6123 89.5373 19.9823C89.4398 24.3512 87.6239 28.5056 84.4832 31.5443C81.3426 34.583 77.1306 36.2611 72.7608 36.2144C68.4435 36.1363 64.3331 34.3502 61.3301 31.2474C58.327 28.1447 56.6761 23.9782 56.739 19.6606Z" fill="white"/>
<path d="M111.35 52.6691C111.33 55.2447 110.549 57.757 109.105 59.8897C107.66 62.0223 105.617 63.6798 103.233 64.6537C100.848 65.6275 98.2287 65.8741 95.7043 65.3623C93.1799 64.8506 90.8634 63.6034 89.0464 61.7778C87.2294 59.9522 85.9931 57.6298 85.4933 55.103C84.9934 52.5763 85.2523 49.9581 86.2374 47.5782C87.2225 45.1983 88.8897 43.163 91.0291 41.7287C93.1685 40.2943 95.6844 39.525 98.2601 39.5176C99.9857 39.5127 101.695 39.8499 103.289 40.5099C104.884 41.1698 106.332 42.1393 107.549 43.3623C108.766 44.5854 109.729 46.0376 110.381 47.6351C111.034 49.2326 111.363 50.9436 111.35 52.6691Z" fill="white"/>
<path d="M10.5546 27.6289C7.80368 27.611 5.16693 26.527 3.19878 24.605C1.23063 22.683 0.0844369 20.0727 0.00123048 17.323C-0.030606 15.2441 0.555982 13.2026 1.68653 11.4576C2.81708 9.71271 4.44061 8.34303 6.35102 7.52248C8.26143 6.70194 10.3726 6.46753 12.4164 6.84901C14.4603 7.23049 16.3448 8.21067 17.8306 9.66511C19.3163 11.1195 20.3365 12.9827 20.7615 15.0179C21.1864 17.0532 20.9971 19.1689 20.2175 21.0963C19.4379 23.0238 18.1031 24.6762 16.3827 25.8437C14.6622 27.0112 12.6337 27.6412 10.5546 27.6537V27.6289Z" fill="white"/>
<path d="M45.6046 6.78059C45.6343 7.67816 45.4853 8.57268 45.1664 9.4122C44.8475 10.2517 44.365 11.0195 43.7469 11.671C43.1287 12.3225 42.3874 12.8447 41.5658 13.2073C40.7441 13.5699 39.8587 13.7656 38.9608 13.7832C38.0673 13.7964 37.1801 13.6306 36.3517 13.2955C35.5232 12.9605 34.7703 12.4629 34.1372 11.8321C33.5041 11.2014 33.0038 10.4502 32.6657 9.62302C32.3276 8.7958 32.1586 7.90925 32.1686 7.01566C32.1236 6.12094 32.2591 5.22632 32.5669 4.38501C32.8748 3.54371 33.3486 2.7729 33.9604 2.11845C34.5721 1.46399 35.3093 0.939252 36.1279 0.575443C36.9466 0.211634 37.83 0.0161852 38.7257 0.000722548C39.6244 -0.0123977 40.5167 0.15328 41.3507 0.488122C42.1847 0.822963 42.9439 1.32029 43.5839 1.95117C44.224 2.58205 44.7323 3.33389 45.0792 4.16298C45.4261 4.99207 45.6047 5.88186 45.6046 6.78059Z" fill="white"/>
</svg>
