<svg width="220" height="100" viewBox="0 0 220 100" fill="none" xmlns="http://www.w3.org/2000/svg">
<path d="M104.944 42.4301V57.5094H142.918C141.231 65.2185 136.99 72.1319 130.882 77.1282C124.773 82.1245 117.156 84.9108 109.266 85.0351C101.375 85.1594 93.6743 82.6145 87.4117 77.8131C81.149 73.0117 76.692 66.2355 74.7635 58.5833C72.8351 50.9312 73.5482 42.8519 76.7874 35.656C80.0265 28.46 85.6017 22.5693 92.6086 18.9392C99.6155 15.3092 107.643 14.1527 115.39 15.6573C123.137 17.162 130.148 21.2395 135.286 27.2286L145.909 16.6059C137.918 7.72686 126.999 2.01912 115.147 0.525405C103.296 -0.968313 91.3022 1.8517 81.3579 8.47025C71.4136 15.0888 64.1823 25.0641 60.9852 36.5738C57.788 48.0835 58.8384 60.3592 63.9444 71.1585C69.0504 81.9577 77.8712 90.5595 88.7954 95.3924C99.7196 100.225 112.018 100.967 123.444 97.4814C134.869 93.9959 144.66 86.5162 151.026 76.4087C157.393 66.3011 159.91 54.2405 158.119 42.4301H104.944Z" fill="#FFFFFE"/>
<path d="M0 0V100H15.0183V57.4481H49.2369V42.4603H15.0183V14.9878H53.5409V0H0Z" fill="#FFFFFE"/>
<path d="M219.443 15.0183V0H165.902V100H180.921V57.4481H215.17V42.4298H180.921V14.9573H219.443" fill="#FFFFFE"/>
</svg>
