<?xml version="1.0" encoding="UTF-8"?>
<svg id="Layer_1" xmlns="http://www.w3.org/2000/svg" version="1.1" viewBox="0 0 340 120">
  <!-- Generator: Adobe Illustrator 29.4.0, SVG Export Plug-In . SVG Version: 2.1.0 Build 152)  -->
  <defs>
    <style>
      .st0 {
        fill: #fff;
        fill-rule: evenodd;
      }
    </style>
  </defs>
  <path class="st0" d="M170.1,0C76.52,0,.47,26.99.47,60.12s76.05,59.88,169.63,59.88,169.84-26.65,169.84-59.88S263.93,0,170.1,0ZM170.1,115.34C79.26,115.34,5.93,90.62,5.93,60.12S79.26,5,170.1,5s164.38,24.72,164.38,55.12-73.6,55.22-164.38,55.22Z"/>
  <path class="st0" d="M219.98,22.08c0,3.66-12.76,10.61-23.57,10.61-16.85,0-34.38-8.1-42.46-9.91-8.78-2.06-16.74-3.77-23-3.77-21.97,0-31.76,9.44-31.31,18.1.23,3.53,3.08,5.81,7.28,5,4.55-.79,10.93-5.11,12.53-8.87.06-.15.14-.29.25-.41.11-.12.24-.21.39-.27.15-.06.31-.1.47-.1.16,0,.32.03.47.1.19.16.34.37.42.61.08.24.09.5.03.74-.57,4.43-7.4,16.74-19.23,16.74-6.61,0-11.06-6.15-10.95-12.19.11-11.32,11.62-22.64,39.97-22.64,6.03.02,12.04.55,17.98,1.59,13.9,2.62,27.98,4.21,42.12,4.77,6.3.23,12.6,0,18.87-.68,6.26-1.02,4.89-1.25,7.4-1.25s2.28.91,2.28,1.89l.04-.06Z"/>
  <path class="st0" d="M263.46,74.58c-.45,0-1.24,1.02-1.7,1.59-2.17,2.28-11.15,11.62-16.06,11.85,1.04,0-1.7.57-1.89-1.6.16-1.43.67-2.79,1.47-3.98l24.36-43.16h-8.98l-14.74,24.89c-1.13-2.28-2.83-7.55-9.55-7.76-11.17-.11-15.49,7.55-23.23,14.81-1.44,1.56-3.19,2.79-5.14,3.62-1.95.82-4.06,1.22-6.18,1.16-.85.04-1.71-.12-2.49-.46s-1.48-.85-2.04-1.5-.96-1.41-1.19-2.24c-.22-.83-.25-1.69-.09-2.53.45-2.96,1.47-4.43,3.64-5.23.35,1.37,1.16,2.58,2.31,3.41,1.14.83,2.54,1.23,3.96,1.14,1.64-.13,3.16-.87,4.28-2.07,1.12-1.2,1.74-2.78,1.74-4.42,0-.8-.15-1.59-.45-2.33s-.76-1.4-1.34-1.96c-.57-.55-1.25-.99-2-1.27-.75-.28-1.54-.41-2.34-.37-4.21-.23-7.4,1.72-11.96,6.94,0,0,1.15-7.74-7.4-7.55-.93-.07-1.87.08-2.74.45-4.66,1.49-10.7,9-15.47,14.81.19-1.13.26-2.27.23-3.42.04-3.62-1.21-7.13-3.53-9.91-.18-.17-.4-.3-.64-.38-.24-.08-.49-.1-.74-.07-.39.03-.76.13-1.11.3-.35.17-.65.42-.9.71-.25.3-.44.64-.55,1.01-.11.37-.15.76-.12,1.14,1.62,1.87,2.54,4.25,2.6,6.72,0,3.31-.64,6.59-1.89,9.66-4.32,7.42-9.79,12.19-16.4,11.17-3.53-.81-5.93-4.23-5.23-9.44.58-3.42,1.86-6.68,3.78-9.57,1.68-2.36,3.81-4.36,6.27-5.89s5.21-2.54,8.07-2.98c.1-.36.09-.74,0-1.1-.1-.36-.29-.69-.56-.95-.23-.39-.57-.71-.98-.92-.41-.2-.87-.29-1.32-.23-9.68.34-15.59,7.28-19.02,14.12-1.24,2.38-3.06,5.79-4.1,7.96-1.18,2.3-2.94,4.25-5.11,5.66-2.17,1.7-2.85,2.26-3.19,2.15.23,1.11.83,2.12,1.7,2.85.34.23,1.49-.45,1.89-.68,5.34-3.08,5.93-4.55,5.93-4.55,1.13,6.36,6.6,9.66,12.62,9.66,8.32,0,15.94-7.55,20.38-14.12,3.38-4.82,7.08-9.4,11.08-13.72,2.51-2.38,5.13-3.98,6.72-3.98.33,0,.66.08.97.23.3.15.56.36.77.62.21.26.35.57.43.89.07.33.08.67,0,.99-.6,2.65-1.6,5.19-2.96,7.55l-12.4,21h9.66c5.66-10.47,5.81-10.81,11.32-20.76,1.47,5.66,4.43,7.74,9.21,7.85,3.43.37,6.9-.22,10.02-1.7-.73,2.84-.49,5.84.68,8.53.68,1.82,1.91,3.39,3.53,4.47,1.61,1.08,3.53,1.63,5.47,1.57,5.44-.02,10.74-1.64,15.27-4.66.57,3.3,2.15,5,6.36,5,8.55-.23,16.06-8.98,20.61-14.68.82-.94,1.45-2.02,1.89-3.19-.09-.75-1-1.21-1.47-1.21ZM241.04,71.84c-2.25,3.75-4.88,7.26-7.85,10.47-7.06,7.17-11.62,4.77-12.64,3.98-.68-.92-1.16-1.97-1.4-3.1-.23-1.12-.22-2.28.04-3.4.72-3.68,2.27-7.15,4.55-10.13,4.1-5,9.12-8.42,13.1-7.96,4.89.57,5.34,5.36,2.96,9.79l1.25.34Z"/>
  <path class="st0" d="M160.08,39.86c-.02-.95-.37-1.85-1-2.56-.63-.71-1.48-1.17-2.42-1.31-3.64-.59-6.47,2.38-6.83,7.28.04.92.2,1.84.47,2.72-4.91.82-9.85,1.4-14.81,1.72,4.65-8.27,10.93-15.51,18.46-21.29.63-.57,1.2-1.2,1.7-1.89.1-.19.15-.4.14-.61,0-.21-.06-.42-.16-.6-.1-.19-.24-.34-.42-.46-.18-.12-.38-.19-.59-.21-2.74,0-15.95,9.81-26.19,25.51-2.62.34-13.55,1.25-17.19,5.36-.32.44-.55.94-.68,1.47.23.91.91,1.36,1.89.57,2.26-2.62,11.49-3.64,13.66-3.77-13.38,18.93-25.8,31.25-36.84,31.25-1.18.09-2.37.01-3.53-.23-4.45-1.02-7.06-5.66-7.06-9.91,0-5.66,5.34-11.61,8.42-12.74,1.02-.47,1.49-1.04,1.49-1.49s-.47-1.13-1.72-1.13c-10.59,2.62-16.29,11.32-16.17,18.32.25,11.62,9,18.1,18.87,18.1,13.89,0,20.95-6.02,43.61-42.69,8.98-.91,13.44-1.47,17.98-2.28.41.94,1.07,1.75,1.91,2.33.84.58,1.84.92,2.86.97.57.11.45-.45.79-1.7-1.47-.11-3.17-1.15-3.17-2.4,1.25-.62,2.43-1.36,3.53-2.21,1.67-1.64,2.73-3.81,2.98-6.13ZM153.02,45.76c-.46-1.44-.46-2.99,0-4.43.18-.74.58-1.41,1.15-1.92.57-.51,1.28-.83,2.04-.93.81-.11,1.15.68,1.26,1.38,0,1.52-.58,2.98-1.6,4.09-1.7,1.92-2.85,1.81-2.85,1.81Z"/>
</svg>