<svg width="576" height="100" viewBox="0 0 576 100" fill="none" xmlns="http://www.w3.org/2000/svg">
<path fill-rule="evenodd" clip-rule="evenodd" d="M203.145 97.9724C206.619 98.8695 210.187 99.3541 213.774 99.4163C217.452 99.3694 221.108 98.8427 224.65 97.8495C229.773 96.3118 234.458 93.58 238.319 89.8787C242.181 86.1775 245.109 81.6125 246.862 76.5591C248.755 71.6517 249.794 66.4563 249.934 61.1982C249.798 56.0491 248.834 50.9556 247.077 46.1137C245.221 41.1603 242.262 36.6942 238.424 33.0535C234.586 29.4128 229.971 26.6929 224.926 25.0998C221.374 24.1733 217.722 23.6782 214.051 23.6252C210.372 23.6657 206.715 24.1926 203.175 25.192C198.074 26.8315 193.42 29.6244 189.573 33.354C185.726 37.0836 182.79 41.6496 180.994 46.6974C179.232 51.6302 178.297 56.8206 178.229 62.0584C178.362 67.4653 179.315 72.8207 181.055 77.9416H149.934C146.544 77.8292 143.335 76.3865 141 73.9257C138.666 71.4649 137.394 68.1838 137.461 64.7926V0.276498H118.26V64.7926C118.128 73.3599 121.397 81.6302 127.352 87.7917C133.306 93.9532 141.459 97.5036 150.026 97.6651H185.141V85.0691C189.535 91.2779 195.868 95.8496 203.145 98.0645V97.9724ZM197 69.5545C196.816 67.3118 196.355 64.3625 196.355 61.9662C196.464 59.1624 196.772 56.3699 197.277 53.6098C197.697 51.486 198.378 49.4222 199.304 47.4654C200.525 44.6093 202.554 42.1719 205.141 40.4527C207.728 38.7335 210.76 37.8074 213.866 37.788C216.997 37.7821 220.063 38.6806 222.696 40.3756C225.328 42.0706 227.415 44.4899 228.705 47.3426C229.642 49.3566 230.314 51.4841 230.702 53.6713C231.188 56.2053 231.475 58.7732 231.562 61.3518C231.402 64.0714 231.084 66.7795 230.61 69.4624C230.263 71.5966 229.6 73.6674 228.644 75.6068C227.382 78.5181 225.309 81.0048 222.672 82.7699C220.036 84.535 216.947 85.5038 213.774 85.5607C210.65 85.5007 207.609 84.5376 205.02 82.7877C202.43 81.0378 200.402 78.5758 199.181 75.6989C198.189 73.7608 197.475 71.6922 197.062 69.5545H197ZM318.505 82.6114C316.161 87.774 312.386 92.156 307.627 95.238C302.867 98.32 297.324 99.9727 291.654 100C284.472 99.8296 277.581 97.1193 272.207 92.3502V97.5422H254.573V0H272.545V30.722C277.878 26.1187 284.672 23.5599 291.716 23.5023C296.372 23.5278 300.966 24.5766 305.172 26.5745C311.693 30.3737 316.755 36.2464 319.55 43.2565C321.765 49.1538 322.94 55.3907 323.022 61.6897C323.003 68.8574 321.486 75.942 318.567 82.4885L318.505 82.6114ZM273.006 51.49C273.532 49.7622 274.319 48.1251 275.341 46.6359C276.701 44.3634 278.615 42.4726 280.903 41.1402C283.192 39.8079 285.781 39.0773 288.429 39.0169C291.526 39.034 294.546 39.9871 297.092 41.7512C301.034 44.9402 303.615 49.5093 304.312 54.5315C304.621 56.9259 304.785 59.3369 304.803 61.7512C304.803 63.7788 304.435 66.2058 304.25 68.172C303.737 71.4592 302.533 74.6003 300.717 77.3886C299.248 79.8089 297.115 81.757 294.572 83.0022C292.029 84.2473 289.182 84.7373 286.369 84.4139C283.556 84.0906 280.895 82.9675 278.701 81.1779C276.507 79.3882 274.872 77.007 273.989 74.3164C272.571 70.0323 271.815 65.5568 271.747 61.0446C271.81 57.7657 272.212 54.5022 272.945 51.3057L273.006 51.49ZM345.94 97.573H327.722V0H345.94V97.573ZM397.246 75.2074C397.522 72.2888 397.983 68.4793 397.983 65.4685C397.983 63.9017 397.707 62.1813 397.707 60.7066C395.942 61.7024 394.051 62.4567 392.085 62.9493L380.81 65.6836C378.854 66.1749 376.951 66.8539 375.126 67.7112C373.058 68.5935 371.242 69.9766 369.842 71.7358C368.815 73.0476 368.282 74.6789 368.337 76.3441C368.347 77.0858 368.471 77.8215 368.705 78.5253C369.282 79.9766 370.148 81.2948 371.252 82.3989C372.357 83.5031 373.675 84.3699 375.126 84.9462C377.054 85.5611 379.063 85.8821 381.086 85.8986C385.75 85.8592 390.264 84.2462 393.897 81.321C394.851 80.5751 395.649 79.6486 396.244 78.5943C396.84 77.54 397.222 76.3787 397.369 75.1767L397.246 75.2074ZM414.942 87.4962C414.909 90.9536 415.709 94.368 417.277 97.4501H399.611C399.212 95.2995 398.843 93.149 398.567 90.9985C393.041 95.9889 385.923 98.8574 378.481 99.0937C371.038 99.3299 363.754 96.9187 357.922 92.2888C353.894 89.1071 351.269 84.4762 350.61 79.3856C350.61 78.9247 350.61 78.126 350.61 77.6344C350.602 74.3493 351.388 71.1109 352.902 68.1954C354.416 65.2799 356.612 62.7738 359.304 60.8909C363.005 58.2844 367.179 56.4267 371.593 55.4224C376.42 54.2732 381.314 53.4318 386.247 52.9032C388.12 52.4611 390.018 52.1328 391.931 51.9201C393.456 51.7109 394.853 50.9529 395.86 49.7879C396.866 48.6229 397.414 47.131 397.399 45.5914C397.417 44.6138 397.239 43.6426 396.877 42.7343C395.96 40.8174 394.376 39.2996 392.423 38.4639C389.963 37.1911 387.235 36.5274 384.466 36.5284C382.027 36.524 379.612 37.0153 377.369 37.9724C375.584 38.7343 374.044 39.9759 372.922 41.5594C371.799 43.1429 371.137 45.0064 371.009 46.9432H355.218C355.552 43.233 356.486 39.6016 357.983 36.1905C359.241 33.5764 361.118 31.309 363.452 29.5853C365.428 28.0874 367.625 26.9059 369.965 26.0829C380.459 22.4431 391.914 22.7158 402.223 26.851C406.534 28.769 410.134 31.9929 412.515 36.0676C414.125 39.9687 414.989 44.1368 415.065 48.3564V87.2504L414.942 87.4962ZM434.665 97.4808L413.559 25.8679H431.532L444.312 71.4286L455.71 25.8679H472.208L485.234 71.9508L496.693 25.8679H514.85L494.327 97.573H477.584L464.558 49.1551L451.593 97.5422L434.665 97.4808ZM549.934 38.5868C551.708 39.2075 553.262 40.3311 554.408 41.8205C555.553 43.3098 556.241 45.1005 556.386 46.9739H572.761C572.752 43.0521 571.671 39.2073 569.635 35.8554C567.599 32.5035 564.686 29.7722 561.209 27.957C551.737 23.2293 540.775 22.4558 530.733 25.8065C519.949 29.1244 514.665 35.8525 514.665 46.4823C514.681 49.1219 515.234 51.7307 516.29 54.1497C517.346 56.5688 518.884 58.7474 520.81 60.553C525.489 64.2301 531.031 66.6517 536.908 67.5883L551.47 70.5069C557.369 71.5515 560.84 77.9724 555.741 82.7957C550.641 87.6191 543.82 86.8817 538.106 84.639C535.873 83.6888 533.944 82.1432 532.53 80.171C531.116 78.1989 530.271 75.876 530.088 73.4562H513.713C513.797 77.8617 514.968 82.1782 517.123 86.0215C519.691 90.3031 523.433 93.7579 527.906 95.9754C537.62 100.443 548.649 101.133 558.843 97.9109C563.699 96.7336 568.001 93.9182 571.023 89.9392C574.045 85.9603 575.602 81.0612 575.433 76.0676C575.661 72.4752 574.875 68.891 573.164 65.724C571.453 62.5571 568.886 59.9349 565.756 58.1567C562.072 56.2256 558.114 54.8684 554.02 54.1321L536.171 50.8449C535.041 50.7901 533.952 50.403 533.041 49.7319C532.13 49.0608 531.438 48.1357 531.05 47.0726C530.663 46.0095 530.599 44.8557 530.864 43.756C531.13 42.6563 531.715 41.6596 532.545 40.8909C537.461 36.4055 544.005 37.1429 549.934 38.8326V38.5868Z" fill="white"/>
<path fill-rule="evenodd" clip-rule="evenodd" d="M47.97 0H0.658203V48.7865C0.682503 61.7155 5.82511 74.109 14.9616 83.2569C24.098 92.4049 36.485 97.5631 49.414 97.6037H98.2005V50.1997H66.649C61.6972 50.1754 56.9556 48.1954 53.457 44.6911C49.9584 41.1867 47.9862 36.4418 47.97 31.49V0Z" fill="white"/>
<path fill-rule="evenodd" clip-rule="evenodd" d="M65.1724 0H50.8867V31.5515C50.9029 35.7264 52.5686 39.7257 55.5207 42.6778C58.4728 45.63 62.4722 47.2956 66.6471 47.3118H98.1986V32.9032H78.1985C74.7625 32.9114 71.4631 31.5585 69.022 29.1404C66.5809 26.7224 65.1968 23.4359 65.1724 20V0ZM80.9635 0H68.2446V20.0307C68.2607 22.682 69.3211 25.2201 71.1959 27.0948C73.0706 28.9696 75.6087 30.03 78.26 30.0461H98.2907V17.2965H88.7362C86.6989 17.2803 84.75 16.4617 83.3123 15.0182C81.8745 13.5747 81.0637 11.6226 81.0557 9.58525V0H80.9635ZM98.1371 0H83.9743V9.58525C83.9661 10.8429 84.4557 12.0528 85.3364 12.9507C86.217 13.8486 87.4171 14.3617 88.6747 14.3779H98.1678V0H98.1371Z" fill="white"/>
</svg>
