<svg width="153" height="150" viewBox="0 0 153 150" fill="none" xmlns="http://www.w3.org/2000/svg">
<path fill-rule="evenodd" clip-rule="evenodd" d="M76.7543 150C34.88 150 0.941406 116.388 0.941406 74.9832C0.941406 33.5782 34.8967 0 76.7543 0C118.612 0 152.617 33.5782 152.617 74.9832C152.617 116.388 118.645 150 76.7543 150ZM14.5755 110.975L15.933 109.919C12.9393 104.426 10.5429 98.6271 8.78498 92.6229C8.68893 92.3108 8.54777 92.0143 8.36599 91.743C8.30239 92.0413 8.30239 92.3497 8.36599 92.648C9.70943 98.9839 11.8053 105.136 14.609 110.975H14.5755ZM77.8101 7.44972L88.0922 67.4246L77.3408 73.743L76.9805 7.46648C76.9805 6.62849 76.4526 6.62849 76.3353 7.46648L70.2515 70.3156L65.7263 67.6927L75.4135 7.46648C66.557 7.48404 57.791 9.2482 49.6172 12.658C41.4435 16.0678 34.0225 21.0562 27.7791 27.3377C21.5358 33.6192 16.5926 41.0704 13.2327 49.2648C9.87275 57.4592 8.16201 66.2358 8.19839 75.0922C8.19839 86.824 11.8939 99.2263 17.2151 108.863L64.5364 69.5531L69.0783 72.1592L15.9498 110.338C14.6677 111.243 15.0448 111.679 16.461 110.899L75.7906 76.6257V88.9609L18.5392 110.782C30.5308 130.374 51.7906 142.86 76.6034 142.86C101.416 142.86 122.986 130.358 134.978 110.807L77.7347 88.9525V76.6257L134.802 109.542C136.109 110.254 136.478 109.86 135.254 108.997L84.447 72.1257L88.9889 69.5279L136.277 108.913C142.038 98.5189 145.133 86.8584 145.285 74.9749C145.285 38.1872 114.707 8.43855 77.8101 7.44134V7.44972ZM148.964 61.4078C149.057 61.7064 149.196 61.989 149.374 62.2458C149.446 61.9483 149.446 61.6383 149.374 61.3408C143.14 27.2849 113.575 1.81006 76.9051 1.81006C67.1504 1.81115 57.4914 3.73427 48.4802 7.46953C39.469 11.2048 31.282 16.679 24.3871 23.5793C17.4922 30.4797 12.0245 38.671 8.29631 47.6852C4.56817 56.6994 2.65268 66.3598 2.65928 76.1145C2.65928 85.8017 5.17325 95.0447 8.52521 103.508C10.7701 108.523 13.3398 113.385 16.2179 118.064C16.3927 118.367 16.623 118.634 16.8967 118.852C16.8935 118.521 16.8162 118.194 16.6705 117.897C16.461 117.536 12.2543 109.517 9.82409 103.567C7.71236 98.4385 5.13135 88.2151 5.13135 76.3743C5.14467 57.265 12.7417 38.9422 26.254 25.4299C39.7663 11.9176 58.0891 4.32058 77.1984 4.30726C98.014 4.30726 117.581 14.4888 129.573 27.6453C138.707 37.6173 143.4 44.3296 148.964 61.4078ZM16.9135 111.369L15.2375 111.972C25.8883 132.335 48.2291 147.168 76.7207 147.168C117.145 147.168 149.458 114.486 149.458 75.0168C149.458 65.3631 146.668 59.4386 145.101 55.1648C143.736 51.6905 142.164 48.3016 140.391 45.0168C140.231 44.6897 139.999 44.4031 139.712 44.1788C139.704 44.5157 139.795 44.8476 139.972 45.1341C141.583 48.4222 142.956 51.822 144.078 55.3073C146.098 61.6767 147.09 68.3269 147.02 75.0084C147.02 87.3184 143.156 99.9134 137.467 109.944C137.785 110.782 137.467 111.184 136.52 111.453C130.201 121.603 121.391 129.969 110.927 135.754C100.464 141.538 88.6938 144.55 76.7375 144.503C53.0559 144.503 34.1258 131.816 28.1341 125.229C23.2822 119.832 19.6788 115.877 16.9135 111.369ZM73.0084 71.9246L76.1341 73.743L76.528 25.1397C76.528 24.1592 76.2263 24.1173 76.1509 25.0978L73.0084 71.9246ZM78.4805 75.6034L120.581 100.249C121.335 100.676 121.486 100.416 120.765 99.9469L81.6732 73.743L78.4721 75.5866L78.4805 75.6034ZM72.0699 73.9274L61.4777 82.5587C60.8995 83.0531 61.1593 83.2793 61.8548 82.8855L75.0531 75.5698L72.0615 73.8939L72.0699 73.9274Z" fill="white"/>
</svg>
