<?xml version="1.0" encoding="UTF-8"?>
<svg id="Layer_1" xmlns="http://www.w3.org/2000/svg" version="1.1" viewBox="0 0 416 100">
  <!-- Generator: Adobe Illustrator 29.4.0, SVG Export Plug-In . SVG Version: 2.1.0 Build 152)  -->
  <defs>
    <style>
      .st0 {
        fill: #fff;
        fill-rule: evenodd;
      }
    </style>
  </defs>
  <path class="st0" d="M24.51,41.49s0,22.16-23.62,21.78l-.45,19.96s37.8,1.87,42.76-38.84c0,0-.35-26.5,24.8-24.69V.05S28.11-3.16,24.51,41.49Z"/>
  <path class="st0" d="M183.71,63.97c7.09,3.99,13.68-4.72,13.68-4.72l13.3,8.39c-2.15,4.13-5.34,7.64-9.24,10.18-3.91,2.54-8.4,4.03-13.06,4.32-24.43.73-30.17-21.78-29.81-28.35.35-6.57,4.27-26.93,25.99-28.35,23.01-1.44,28.75,20.69,28.75,20.69l-29.6,17.84h-.01ZM175.79,52.02l15.47-8.34c-1.37-1.17-3.06-1.89-4.85-2.09-1.79-.2-3.6.14-5.19.98-5.76,2.91-5.43,6.38-5.43,9.45Z"/>
  <path class="st0" d="M235.11,50.56l-10.77-25.04h-17.62l18.69,42.83-18.61,31.65h18.4l39.85-74.34h-16.87l-13.06,24.9h0Z"/>
  <path class="st0" d="M263.51,52.73s-.35,14.17-15.1,12.35v16.32s27.31,4.37,31.28-26.13c0,0-.73-14.17,14.74-14.17v-16.32s-28.35-2.17-30.92,27.95h0Z"/>
  <path class="st0" d="M44.59,53.72c.24,15.59,12.52,28.35,27.43,28.35,7.32-.13,14.29-3.16,19.39-8.42,5.1-5.26,7.9-12.32,7.8-19.65.1-7.31-2.71-14.37-7.81-19.61-5.1-5.24-12.07-8.25-19.38-8.36-3.63-.02-7.22.69-10.57,2.08s-6.39,3.43-8.95,6.01c-2.55,2.58-4.57,5.64-5.92,9-1.36,3.36-2.03,6.97-1.98,10.59h-.01ZM61.39,54.38c0-5.91,3.64-12.02,11.17-12.02,1.52-.06,3.03.21,4.43.77,1.41.57,2.68,1.42,3.73,2.51s1.87,2.39,2.39,3.81c.52,1.42.73,2.94.62,4.45-.02,2.99-1.19,5.86-3.27,8.01-2.08,2.15-4.91,3.42-7.9,3.54-2.94-.02-5.75-1.2-7.84-3.27-2.09-2.07-3.28-4.87-3.33-7.81h0Z"/>
  <path class="st0" d="M368.65,40.64c5.25-.13,10.23-2.34,13.85-6.14s5.59-8.88,5.47-14.13c.13-2.62-.27-5.23-1.19-7.69-.91-2.46-2.32-4.7-4.12-6.6-1.81-1.9-3.98-3.41-6.39-4.44s-5-1.57-7.62-1.57-5.21.53-7.62,1.57c-2.41,1.03-4.58,2.54-6.39,4.44-1.81,1.9-3.21,4.14-4.12,6.6s-1.32,5.07-1.19,7.69c-.06,2.6.39,5.19,1.33,7.61.94,2.43,2.34,4.64,4.14,6.53,1.79,1.88,3.94,3.39,6.32,4.44s4.94,1.62,7.54,1.69h-.01Z"/>
  <path class="st0" d="M398.77,28.54c-2.59-.26-5.2-.01-7.68.74-2.49.75-4.8,1.98-6.82,3.62-2.01,1.64-3.68,3.67-4.91,5.95-1.23,2.29-2,4.8-2.26,7.38-.46,2.58-.39,5.23.21,7.79.6,2.55,1.7,4.96,3.26,7.07,1.55,2.11,3.52,3.89,5.78,5.22s4.77,2.18,7.37,2.51,5.24.12,7.77-.6c2.52-.72,4.87-1.95,6.9-3.61,2.03-1.66,3.7-3.72,4.92-6.04,1.21-2.33,1.94-4.88,2.14-7.49.77-5.2-.56-10.49-3.69-14.71s-7.8-7.04-12.99-7.82h0Z"/>
  <path class="st0" d="M365.96,96.9c5.22.49,10.42-1.12,14.46-4.46,4.04-3.34,6.59-8.15,7.08-13.37.45-2.59.37-5.24-.24-7.8-.61-2.56-1.73-4.96-3.3-7.07-1.57-2.11-3.55-3.88-5.82-5.19-2.27-1.32-4.79-2.16-7.4-2.47s-5.25-.09-7.77.65-4.86,1.99-6.89,3.67c-2.02,1.68-3.68,3.75-4.88,6.09s-1.9,4.9-2.07,7.52c-.74,5.2.62,10.49,3.77,14.7s7.84,6.99,13.05,7.75v-.02Z"/>
  <path class="st0" d="M339.55,28.14c-5.22.43-10.05,2.91-13.45,6.89-3.4,3.98-5.08,9.15-4.69,14.37.03,2.61.58,5.19,1.63,7.57,1.05,2.39,2.57,4.54,4.48,6.32,1.9,1.78,4.15,3.16,6.6,4.06,2.45.89,5.06,1.28,7.66,1.14s5.15-.81,7.49-1.96,4.42-2.77,6.12-4.75c1.7-1.98,2.98-4.28,3.76-6.77.79-2.49,1.06-5.11.8-7.71-.08-2.6-.67-5.16-1.74-7.53s-2.6-4.51-4.49-6.29c-1.9-1.78-4.12-3.17-6.56-4.08-2.43-.92-5.02-1.35-7.62-1.26h0Z"/>
  <path class="st0" d="M117.87,28.4V7.14h-16.23v46.54c-.08,7.38,2.75,14.5,7.89,19.81s12.16,8.38,19.54,8.54c7.33-.11,14.32-3.11,19.44-8.37,5.11-5.25,7.94-12.32,7.85-19.65.12-4.62-.93-9.19-3.05-13.29s-5.26-7.59-9.11-10.15c-3.84-2.56-8.28-4.1-12.88-4.48-4.6-.38-9.23.42-13.44,2.32h-.01ZM118.42,54.38c0-5.91,3.66-12.02,11.2-12.02,1.51-.06,3.02.21,4.43.77,1.41.57,2.68,1.42,3.73,2.51s1.87,2.39,2.38,3.81c.52,1.42.73,2.94.62,4.45-.02,2.99-1.19,5.86-3.28,8.01-2.08,2.15-4.91,3.42-7.9,3.54-2.94-.02-5.76-1.19-7.86-3.26-2.09-2.07-3.29-4.88-3.34-7.82h.02Z"/>
</svg>