<svg width="534" height="120" viewBox="0 0 534 120" fill="none" xmlns="http://www.w3.org/2000/svg">
<path d="M193.71 29.1391H169.492C168.97 29.1359 168.452 29.2358 167.969 29.4332C167.485 29.6306 167.045 29.9216 166.675 30.2894C166.304 30.6572 166.009 31.0946 165.808 31.5766C165.606 32.0585 165.502 32.5755 165.501 33.0978V38.4767C165.527 39.1667 165.819 39.8199 166.317 40.2981C166.815 40.7764 167.48 41.0423 168.17 41.0397H172.153C172.213 41.0385 172.273 41.0539 172.324 41.0841C172.376 41.1143 172.419 41.1583 172.447 41.2111C172.489 41.2724 172.518 41.3417 172.532 41.4148C172.547 41.4878 172.545 41.563 172.529 41.6355L163.052 69.8525C163.011 69.9236 162.951 69.9825 162.879 70.0235C162.808 70.0644 162.727 70.086 162.644 70.086C162.562 70.086 162.481 70.0644 162.409 70.0235C162.338 69.9825 162.278 69.9236 162.236 69.8525L148.026 31.6204V31.5796C147.837 31.1198 147.523 30.7226 147.118 30.4337C146.714 30.1449 146.236 29.9762 145.74 29.9472H137.186C136.689 29.991 136.213 30.165 135.804 30.4515C135.396 30.7381 135.07 31.1272 134.86 31.5796V31.6204L120.674 69.8525C120.65 69.9359 120.599 70.0094 120.53 70.0623C120.461 70.1152 120.377 70.1446 120.29 70.1463C120.197 70.1522 120.104 70.1316 120.021 70.0868C119.939 70.0421 119.871 69.975 119.825 69.8933L110.341 41.6274C110.324 41.5544 110.323 41.4785 110.338 41.4052C110.354 41.3319 110.385 41.2629 110.43 41.2029C110.465 41.1563 110.51 41.1172 110.56 41.0877C110.61 41.0583 110.666 41.0392 110.724 41.0315H114.707C115.39 41.0238 116.044 40.7546 116.535 40.2794C117.025 39.8041 117.315 39.159 117.344 38.4767V33.0978C117.343 32.5762 117.239 32.0599 117.038 31.5785C116.837 31.0971 116.543 30.66 116.173 30.2923C115.803 29.9246 115.364 29.6335 114.882 29.4356C114.399 29.2377 113.882 29.1369 113.361 29.1391H89.1757C88.7584 29.1409 88.3469 29.2373 87.9723 29.4211C87.5976 29.6048 87.2695 29.8712 87.0127 30.2002C86.7758 30.5141 86.6179 30.8806 86.5526 31.2684C86.4872 31.6563 86.5163 32.0542 86.6373 32.4285C86.9719 33.3998 87.3964 34.5752 87.78 35.7995C88.1636 37.0238 88.5962 38.1502 88.9635 39.2032C89.1354 39.7199 89.4631 40.1708 89.9015 40.4938C90.34 40.8168 90.8677 40.9961 91.4122 41.007H95.4933C95.5985 41.0018 95.7022 41.0331 95.787 41.0956C95.8718 41.158 95.9324 41.2479 95.9586 41.3499L114.789 96.3146C114.954 96.8361 115.28 97.2922 115.72 97.6176C116.159 97.943 116.691 98.1212 117.238 98.1266H123.057C123.588 98.1283 124.107 97.9682 124.544 97.6679C124.981 97.3675 125.317 96.941 125.506 96.4452C130.705 81.6225 140.614 53.2423 141.014 52.2383C141.04 52.1331 141.099 52.0393 141.183 51.9714C141.267 51.9034 141.371 51.8653 141.48 51.8629C141.584 51.8557 141.688 51.8852 141.773 51.9463C141.857 52.0074 141.918 52.0962 141.945 52.1975C142.328 53.2096 152.229 81.5817 157.396 96.3962C157.592 96.8909 157.928 97.3175 158.363 97.6235C158.798 97.9295 159.313 98.1016 159.845 98.1184H165.689C166.236 98.113 166.767 97.9348 167.207 97.6094C167.647 97.284 167.972 96.828 168.138 96.3064L186.911 41.3499C187.082 41.007 187.294 41.007 187.376 41.007H191.457C191.997 41.0002 192.522 40.8274 192.96 40.5119C193.398 40.1965 193.728 39.7538 193.906 39.244C194.281 38.1911 194.665 36.9749 195.089 35.8403C195.514 34.7058 195.906 33.4406 196.273 32.4775C196.394 32.1032 196.423 31.7053 196.358 31.3174C196.292 30.9295 196.134 30.5631 195.897 30.2492C195.646 29.8988 195.315 29.6127 194.932 29.4142C194.549 29.2156 194.125 29.1102 193.694 29.1064L193.71 29.1391ZM477.21 87.0912H472.802C472.639 87.0902 472.476 87.0565 472.326 86.992C472.175 86.9276 472.039 86.8337 471.925 86.7158C471.81 86.598 471.721 86.4586 471.662 86.3059C471.602 86.1531 471.574 85.99 471.578 85.8261V31.6204C471.576 31.3865 471.527 31.1553 471.434 30.9408C471.34 30.7262 471.204 30.5328 471.035 30.372C470.865 30.2112 470.664 30.0863 470.445 30.0049C470.225 29.9235 469.992 29.8872 469.758 29.8982H456.894C456.625 29.8978 456.36 29.9586 456.118 30.076C455.876 30.1933 455.664 30.3642 455.498 30.5757L450.16 37.1708C449.864 37.5455 449.729 38.0223 449.784 38.4967C449.839 38.971 450.08 39.4041 450.454 39.7011C450.741 39.9391 451.101 40.0716 451.474 40.0765H453.107C453.436 40.0975 453.747 40.2373 453.981 40.4699C454.215 40.7026 454.357 41.0124 454.38 41.3417V85.7036C454.37 86.0677 454.25 86.4203 454.037 86.7158C452.642 88.5196 449.548 92.3477 448.03 94.2414C447.869 94.4152 447.746 94.6199 447.667 94.8431C447.588 95.0663 447.556 95.3032 447.572 95.5394C447.588 95.7755 447.652 96.0059 447.76 96.2164C447.869 96.4269 448.019 96.613 448.201 96.7635C448.522 97.0386 448.923 97.202 449.344 97.2288H471.782C472.018 97.2501 472.256 97.2154 472.475 97.1275C472.695 97.0395 472.891 96.9008 473.047 96.7227L478.304 90.1929C479.528 88.7645 478.679 87.0422 477.202 87.0422L477.21 87.0912Z" fill="white"/>
<path d="M462.892 22.5847C468.225 22.5847 472.548 18.2908 472.548 12.994C472.548 7.69721 468.225 3.40332 462.892 3.40332C457.559 3.40332 453.236 7.69721 453.236 12.994C453.236 18.2908 457.559 22.5847 462.892 22.5847Z" fill="white"/>
<path d="M256.959 87.3363C253.237 87.4995 251.376 85.7773 251.376 81.5329V51.0958C251.376 37.8076 240.152 29.3842 227.534 29.3842C207.887 29.3842 200.818 38.6402 200.019 48.9736C200.004 49.2091 200.037 49.4451 200.114 49.668C200.191 49.8909 200.312 50.0963 200.469 50.2723C200.626 50.4483 200.816 50.5915 201.029 50.6937C201.242 50.7958 201.473 50.8548 201.708 50.8673H211.503C211.943 50.8569 212.363 50.6846 212.684 50.3834C213.005 50.0821 213.203 49.6732 213.241 49.2348C213.747 43.8477 217.388 39.8972 223.485 39.8972C230.219 39.8972 234.284 43.309 234.284 50.9571V57.5603H230.766C218.702 57.5603 210.401 59.1193 204.818 62.6046C199.235 66.0899 196.378 72.4973 196.378 79.9903C196.297 82.5512 196.765 85.0999 197.75 87.4651C198.736 89.8303 200.216 91.9572 202.092 93.7029C205.944 97.3188 210.434 98.9186 216.319 98.9186C219.835 98.9131 223.307 98.124 226.481 96.6086C229.592 95.2279 232.476 93.3841 235.035 91.1399C235.272 90.9056 235.591 90.7742 235.924 90.7742C236.257 90.7742 236.577 90.9056 236.814 91.1399C236.904 91.2202 236.974 91.3209 237.018 91.4338C239.777 96.225 242.781 97.784 248.494 97.784C253.661 97.784 256.159 92.9928 258.403 90.087C258.589 89.814 258.697 89.4958 258.717 89.1662C258.736 88.8365 258.666 88.5078 258.514 88.2148C258.361 87.9219 258.133 87.6756 257.852 87.5023C257.571 87.3289 257.248 87.2349 256.918 87.2302L256.959 87.3363ZM234.308 82.4389H234.227C234.227 82.8634 233.549 83.4511 233.296 83.7041C231.718 85.0212 229.983 86.1371 228.129 87.0261C226.441 87.7348 224.622 88.077 222.791 88.0301C221.478 88.0538 220.173 87.809 218.958 87.3107C217.742 86.8125 216.642 86.0712 215.723 85.1325C213.957 83.1913 213.001 80.6471 213.054 78.0231C213.054 74.0726 214.539 71.4199 217.543 69.4446C220.547 67.4693 225.46 66.547 231.345 66.547H234.267L234.308 82.4389ZM441.01 87.3363C437.279 87.4995 435.418 85.7773 435.418 81.5329V51.0958C435.418 37.8076 424.195 29.3515 411.536 29.3515C391.897 29.3515 384.82 38.6075 384.021 48.941C383.994 49.4161 384.157 49.8823 384.474 50.2374C384.79 50.5925 385.235 50.8073 385.71 50.8346H395.505C395.944 50.824 396.364 50.6514 396.683 50.3501C397.002 50.0487 397.199 49.6398 397.235 49.2022C397.75 43.8151 401.39 39.8645 407.487 39.8645C414.213 39.8645 418.278 43.2764 418.278 50.9244V57.5277H414.809C402.745 57.5277 394.403 59.0867 388.853 62.572C383.302 66.0573 380.421 72.4973 380.421 79.9903C380.345 82.5543 380.819 85.1049 381.812 87.4702C382.805 89.8356 384.292 91.9608 386.175 93.7029C390.028 97.3188 394.517 98.9186 400.402 98.9186C403.919 98.9131 407.391 98.124 410.564 96.6086C413.676 95.2299 416.561 93.3859 419.118 91.1399C419.355 90.9056 419.675 90.7742 420.008 90.7742C420.341 90.7742 420.661 90.9056 420.898 91.1399C420.99 91.2207 421.062 91.3211 421.11 91.4338C423.861 96.225 426.864 97.784 432.578 97.784C437.745 97.784 440.242 92.9928 442.487 90.087C442.672 89.8146 442.781 89.4971 442.801 89.1682C442.82 88.8392 442.751 88.5111 442.6 88.2184C442.448 87.9257 442.22 87.6793 441.941 87.5054C441.661 87.3314 441.339 87.2363 441.01 87.2302V87.3363ZM418.4 82.4389H418.31C418.31 82.8634 417.633 83.4511 417.38 83.7041C415.803 85.023 414.067 86.1391 412.213 87.0261C410.528 87.7353 408.711 88.0775 406.883 88.0301C405.57 88.0552 404.265 87.8111 403.049 87.3127C401.833 86.8144 400.733 86.0724 399.815 85.1325C398.048 83.1913 397.093 80.6471 397.145 78.0231C397.145 74.0726 398.623 71.4199 401.635 69.4446C404.647 67.4693 409.552 66.547 415.437 66.547H418.359V82.4389H418.4ZM532.247 29.6454C531.358 29.1883 529.113 28.9761 527.162 28.9761C524.502 28.8846 521.851 29.3431 519.376 30.3228L519.204 30.4045C518.383 30.7703 517.604 31.2217 516.878 31.7512C514.146 33.4378 511.69 35.5357 509.597 37.9709C509.597 37.9709 508.667 38.6892 508.495 37.5138V31.4166C508.493 31.1811 508.444 30.9484 508.352 30.7318C508.26 30.5152 508.126 30.319 507.957 30.1544C507.789 29.9899 507.59 29.8602 507.371 29.7728C507.152 29.6854 506.919 29.6421 506.683 29.6454H493.844C493.591 29.6422 493.34 29.6981 493.112 29.8086C492.884 29.9191 492.684 30.0812 492.53 30.282C492.53 30.282 488.449 35.2855 487.159 37.0077C486.947 37.2698 486.814 37.5866 486.776 37.9212C486.737 38.2559 486.794 38.5947 486.94 38.8982C487.086 39.2017 487.316 39.4575 487.601 39.6358C487.887 39.8141 488.218 39.9076 488.555 39.9053H490.187C490.522 39.9115 490.841 40.0466 491.078 40.2823C491.315 40.518 491.452 40.8362 491.461 41.1705V85.7447C491.465 86.1049 491.36 86.458 491.159 86.7568C489.893 88.3076 486.669 92.3479 485.11 94.3232C484.965 94.5102 484.859 94.7241 484.797 94.9526C484.735 95.1811 484.719 95.4196 484.751 95.6542C484.782 95.8888 484.859 96.115 484.978 96.3194C485.097 96.5239 485.256 96.7027 485.445 96.8453C485.742 97.0953 486.118 97.2313 486.506 97.229H514.323C514.781 97.2207 515.218 97.0363 515.543 96.714C515.869 96.3917 516.057 95.9564 516.07 95.4986V88.8137C516.066 88.346 515.877 87.8988 515.546 87.5689C515.214 87.2389 514.766 87.0527 514.299 87.0506H509.891C509.724 87.054 509.558 87.0235 509.403 86.9611C509.248 86.8987 509.107 86.8056 508.989 86.6875C508.871 86.5693 508.778 86.4285 508.715 86.2735C508.653 86.1185 508.622 85.9525 508.626 85.7855V59.7968C509.132 47.4799 516.543 43.6926 520.053 42.5989L520.559 42.4275H520.69C521.657 42.1758 522.653 42.0496 523.653 42.052C526.421 42.0123 529.178 42.423 531.815 43.2682C532.786 43.5212 533.594 42.452 533.594 41.5051V31.3676C533.53 30.9903 533.372 30.635 533.136 30.3342C532.899 30.0334 532.591 29.7966 532.239 29.6454H532.247ZM380.984 29.8576H360.815C360.477 29.8512 360.156 29.7125 359.919 29.4713C359.683 29.2301 359.55 28.9058 359.55 28.5679V18.7161C359.55 13.9167 362.048 9.12542 367.214 9.12542C373.05 9.12542 373.94 14.0228 374.193 17.704C374.221 18.1545 374.413 18.5792 374.734 18.8968C375.055 19.2145 375.481 19.403 375.932 19.4262H384.249C384.472 19.4178 384.691 19.3655 384.894 19.2723C385.097 19.1791 385.279 19.0469 385.431 18.8831C385.582 18.7194 385.7 18.5273 385.778 18.318C385.855 18.1087 385.89 17.8861 385.882 17.6632C385.759 5.29731 377.842 0 365.133 0C357.387 0 352.31 2.39971 348.498 7.01955C344.687 11.6394 342.736 16.8143 342.736 26.0703V28.519C342.736 28.8437 342.607 29.1551 342.377 29.3847C342.148 29.6143 341.836 29.7433 341.511 29.7433L307.091 29.8249C306.857 29.8139 306.624 29.8502 306.405 29.9317C306.185 30.0131 305.985 30.1379 305.815 30.2987C305.645 30.4595 305.509 30.653 305.415 30.8675C305.322 31.082 305.273 31.3132 305.271 31.5472V38.2811C305.277 38.7603 305.472 39.2179 305.812 39.5552C306.153 39.8926 306.612 40.0828 307.091 40.0849H310.789C311.125 40.0849 311.448 40.2179 311.686 40.455C311.925 40.692 312.06 41.0138 312.062 41.3501C312.06 41.5066 312.029 41.6615 311.972 41.8072C311.972 41.8072 302.496 63.7228 298.684 72.4646C298.546 72.7616 298.302 72.996 298 73.1215C297.697 73.2469 297.359 73.2543 297.052 73.1421C296.76 72.9935 296.523 72.7563 296.374 72.4646C292.44 63.6657 282.874 41.8398 282.874 41.8398C282.751 41.5331 282.754 41.1907 282.88 40.8857C283.007 40.5806 283.248 40.3372 283.551 40.2073C283.701 40.1563 283.858 40.1288 284.016 40.1257H286.596C286.834 40.129 287.071 40.0847 287.292 39.9954C287.514 39.9061 287.715 39.7736 287.884 39.6056C288.054 39.4377 288.188 39.2377 288.279 39.0173C288.371 38.7968 288.417 38.5604 288.416 38.3219V31.6288C288.415 31.3945 288.367 31.1628 288.274 30.9477C288.181 30.7327 288.045 30.5387 287.875 30.3777C287.705 30.2167 287.503 30.0919 287.284 30.0109C287.064 29.9299 286.83 29.8944 286.596 29.9066H255.44C255.2 29.9041 254.962 29.9506 254.74 30.0432C254.518 30.1358 254.318 30.2725 254.151 30.4451C253.983 30.6177 253.853 30.8225 253.767 31.047C253.682 31.2715 253.643 31.5111 253.653 31.7512C253.654 32.0368 253.727 32.3176 253.865 32.5675C254.796 34.1999 256.869 38.1178 257.465 39.2524C257.615 39.5164 257.829 39.7388 258.087 39.8998C258.345 40.0608 258.639 40.1552 258.942 40.1747H264.958C265.207 40.1742 265.451 40.2455 265.661 40.3801C265.871 40.5147 266.038 40.7069 266.141 40.9338C266.141 40.9338 288.285 90.3074 289.085 92.0296C289.942 94.2375 289.927 96.6883 289.044 98.8859C288.032 102.918 281.217 110.15 277.446 108.852C274.867 107.962 274.524 103.302 271.43 102.706C270.858 102.608 270.27 102.682 269.741 102.918C269.186 103.13 264.149 109.562 263.048 110.697C262.782 111.04 262.637 111.462 262.637 111.897C262.637 112.331 262.782 112.753 263.048 113.096C265.798 115.912 270.394 119.7 277.103 119.953C285.322 120.287 293.428 119.194 300.904 105.065C300.904 105.065 324.738 47.2024 327.57 40.9746C327.693 40.7686 327.868 40.5983 328.077 40.4809C328.286 40.3634 328.522 40.3029 328.762 40.3053H341.332C341.661 40.2985 341.979 40.4199 342.22 40.6439C342.461 40.8679 342.605 41.1768 342.622 41.5051V85.9569C342.616 86.3219 342.496 86.676 342.279 86.969C340.801 88.8545 337.798 92.601 336.271 94.4946C336.127 94.6719 336.019 94.8759 335.953 95.095C335.888 95.3141 335.866 95.544 335.89 95.7714C335.913 95.9989 335.981 96.2195 336.09 96.4206C336.199 96.6217 336.347 96.7993 336.524 96.9433C336.844 97.2093 337.252 97.3436 337.667 97.3188H365.778C366.016 97.322 366.253 97.2777 366.475 97.1884C366.696 97.0991 366.897 96.9666 367.066 96.7987C367.236 96.6307 367.37 96.4307 367.461 96.2103C367.553 95.9899 367.599 95.7535 367.598 95.5149V88.9688C367.6 88.7295 367.555 88.4922 367.464 88.2708C367.373 88.0495 367.239 87.8485 367.069 87.6797C366.9 87.5109 366.698 87.3776 366.476 87.2878C366.255 87.198 366.017 87.1535 365.778 87.1567H360.954C360.79 87.1557 360.629 87.1222 360.478 87.0584C360.327 86.9945 360.191 86.9015 360.076 86.7847C359.962 86.6679 359.871 86.5295 359.81 86.3777C359.75 86.2258 359.719 86.0633 359.722 85.8997V41.3419C359.724 41.0164 359.854 40.705 360.085 40.4757C360.316 40.2463 360.629 40.1176 360.954 40.1176H375.818C376.085 40.116 376.349 40.0552 376.59 39.9394C376.832 39.8237 377.044 39.656 377.213 39.4483C378.478 37.8158 381.025 34.4856 382.38 32.7552C382.668 32.3749 382.794 31.896 382.729 31.4233C382.665 30.9507 382.416 30.5227 382.037 30.2331C381.728 30.0059 381.359 29.8753 380.976 29.8576H380.984Z" fill="white"/>
<path d="M77.5277 51.2597L72.6303 33.0986C72.5544 32.7966 72.3994 32.5203 72.1814 32.298C71.9634 32.0756 71.6901 31.9153 71.3897 31.8335L53.098 27.0014C52.8014 26.917 52.4875 26.9149 52.1898 26.9954C51.8921 27.076 51.622 27.236 51.4084 27.4585L39.165 39.6529L64.8272 65.1845L77.0706 52.9901C77.2855 52.7629 77.4399 52.4855 77.5197 52.1831C77.5996 51.8808 77.6023 51.5633 77.5277 51.2597Z" fill="white"/>
<path d="M0.687987 79.0593L5.58535 97.2285C5.66454 97.5333 5.82469 97.8111 6.04884 98.0324C6.27299 98.2537 6.55281 98.4102 6.85866 98.4855L25.1911 103.326C25.4884 103.41 25.8031 103.411 26.101 103.329C26.3988 103.247 26.6685 103.085 26.8807 102.86L39.1241 90.666L13.4701 65.1426L1.19405 77.337C0.97003 77.5572 0.805964 77.831 0.717402 78.1324C0.62884 78.4338 0.618715 78.7528 0.687987 79.0593Z" fill="white"/>
<path d="M25.1096 27.0005L6.82614 31.8325C6.51367 31.904 6.22675 32.0598 5.99653 32.2828C5.7663 32.5058 5.60155 32.7877 5.52018 33.0977L0.688112 51.2587C0.598685 51.5543 0.59493 51.8692 0.677283 52.1668C0.759635 52.4644 0.924716 52.7326 1.15336 52.9402L13.3968 65.1836L39.0916 39.652L26.8074 27.4576C26.5975 27.2273 26.3261 27.0619 26.0253 26.9809C25.7245 26.8999 25.4067 26.9067 25.1096 27.0005Z" fill="white"/>
<path d="M76.8987 77.1656L64.7859 65.1426L39.1318 90.6007L51.2283 102.648C51.5048 102.916 51.8439 103.11 52.2146 103.212C52.5853 103.315 52.9758 103.323 53.3505 103.236L71.1687 98.5263C71.542 98.4259 71.8828 98.2302 72.1576 97.9583C72.4323 97.6864 72.6316 97.3477 72.7359 96.9754L77.4782 79.2715C77.5665 78.9 77.5598 78.5123 77.4585 78.1442C77.3572 77.7761 77.1646 77.4395 76.8987 77.1656Z" fill="white"/>
<path d="M77.5277 51.2597L72.6303 33.0986C72.5544 32.7966 72.3994 32.5203 72.1814 32.298C71.9634 32.0756 71.6901 31.9153 71.3897 31.8335L53.098 27.0014C52.8014 26.917 52.4875 26.9149 52.1898 26.9954C51.8921 27.076 51.622 27.236 51.4084 27.4585L39.165 39.6529L64.8272 65.1845L77.0706 52.9901C77.2855 52.7629 77.4399 52.4855 77.5197 52.1831C77.5996 51.8808 77.6023 51.5633 77.5277 51.2597Z" fill="white"/>
<path d="M0.687987 79.0593L5.58535 97.2285C5.66454 97.5333 5.82469 97.8111 6.04884 98.0324C6.27299 98.2537 6.55281 98.4102 6.85866 98.4855L25.1911 103.326C25.4884 103.41 25.8031 103.411 26.101 103.329C26.3988 103.247 26.6685 103.085 26.8807 102.86L39.1241 90.666L13.4701 65.1426L1.19405 77.337C0.97003 77.5572 0.805964 77.831 0.717402 78.1324C0.62884 78.4338 0.618715 78.7528 0.687987 79.0593Z" fill="white"/>
<path d="M25.1096 27.0005L6.82614 31.8325C6.51367 31.904 6.22675 32.0598 5.99653 32.2828C5.7663 32.5058 5.60155 32.7877 5.52018 33.0977L0.688112 51.2587C0.598685 51.5543 0.59493 51.8692 0.677283 52.1668C0.759635 52.4644 0.924716 52.7326 1.15336 52.9402L13.3968 65.1836L39.0916 39.652L26.8074 27.4576C26.5975 27.2273 26.3261 27.0619 26.0253 26.9809C25.7245 26.8999 25.4067 26.9067 25.1096 27.0005Z" fill="white"/>
<path d="M76.8987 77.1656L64.7859 65.1426L39.1318 90.6007L51.2283 102.648C51.5048 102.916 51.8439 103.11 52.2146 103.212C52.5853 103.315 52.9758 103.323 53.3505 103.236L71.1687 98.5263C71.542 98.4259 71.8828 98.2302 72.1576 97.9583C72.4323 97.6864 72.6316 97.3477 72.7359 96.9754L77.4782 79.2715C77.5665 78.9 77.5598 78.5123 77.4585 78.1442C77.3572 77.7761 77.1646 77.4395 76.8987 77.1656Z" fill="white"/>
</svg>
