<?xml version="1.0" encoding="UTF-8"?>
<svg id="Layer_1" xmlns="http://www.w3.org/2000/svg" version="1.1" viewBox="0 0 220 100">
  <!-- Generator: Adobe Illustrator 29.4.0, SVG Export Plug-In . SVG Version: 2.1.0 Build 152)  -->
  <defs>
    <style>
      .st0 {
        fill: #7ac143;
      }
    </style>
  </defs>
  <path class="st0" d="M104.94,42.43v15.08h37.97c-1.69,7.71-5.93,14.62-12.04,19.62-6.11,5-13.73,7.78-21.62,7.91-7.89.12-15.59-2.42-21.85-7.22-6.26-4.8-10.72-11.58-12.65-19.23-1.93-7.65-1.22-15.73,2.02-22.93,3.24-7.2,8.81-13.09,15.82-16.72,7.01-3.63,15.03-4.79,22.78-3.28,7.75,1.5,14.76,5.58,19.9,11.57l10.62-10.62c-7.99-8.88-18.91-14.59-30.76-16.08-11.85-1.49-23.84,1.33-33.79,7.94-9.94,6.62-17.18,16.59-20.37,28.1-3.2,11.51-2.15,23.79,2.96,34.58,5.11,10.8,13.93,19.4,24.85,24.23,10.92,4.83,23.22,5.57,34.65,2.09,11.43-3.49,21.22-10.97,27.58-21.07,6.37-10.11,8.88-22.17,7.09-33.98h-53.18Z"/>
  <path class="st0" d="M0,0v100h15.02v-42.55h34.22v-14.99H15.02V14.99h38.52V0H0Z"/>
  <path class="st0" d="M219.44,15.02V0h-53.54v100h15.02v-42.55h34.25v-15.02h-34.25V14.96h38.52"/>
</svg>