<?xml version="1.0" encoding="UTF-8"?>
<svg id="Layer_1" xmlns="http://www.w3.org/2000/svg" version="1.1" viewBox="0 0 320 120">
  <!-- Generator: Adobe Illustrator 29.4.0, SVG Export Plug-In . SVG Version: 2.1.0 Build 152)  -->
  <defs>
    <style>
      .st0 {
        fill: #fff;
      }

      .st1 {
        fill: #003478;
      }
    </style>
  </defs>
  <path class="st1" d="M160,0C71.2,0,0,26.62,0,59.99s71.79,60.01,160,60.01,160-26.92,160-60.01S248.23,0,160,0"/>
  <g>
    <path class="st0" d="M223.03,72.68c.04.29.4.54.74.67.14.04.2.13.06.43-1,2.12-1.9,3.35-3.15,5.21-1.14,1.72-2.45,3.05-4.01,4.34-2.38,1.96-5.65,4.08-8.37,2.66-1.2-.63-1.72-2.32-1.7-3.68.06-3.85,1.77-7.79,4.92-11.66,3.85-4.72,8.1-7.18,10.88-5.85,2.89,1.39,1.97,4.72.69,7.34-.09.17-.11.36-.06.54M254,42.77c.2-.37,0-.64-.47-.64h-8.09c-.6,0-.92.09-1.19.64-.93,1.77-12.24,18.7-14.34,22-.34.5-.79.43-.83-.14-.21-1.95-1.9-4.19-4.57-5.27-1.92-.77-4.01-1.02-6.05-.72-3.72.52-7.03,2.48-9.95,4.68-4.38,3.33-8.16,7.66-13.05,10.86-2.68,1.73-6.33,3.25-8.77.99-2.2-2.05-1.96-6.61,1.43-10.13.36-.37.79-.06.72.27-.37,1.56.12,3.2,1.29,4.29,1.47,1.32,3.58,1.47,5.4.57,2.06-1.08,3.47-3.1,3.75-5.41.48-3.36-1.85-6.48-5.22-6.96-.15-.02-.3-.04-.45-.05-2.81-.2-5.51.77-8.14,2.95-1.24,1-2.32,2.19-3.21,3.52-.29.4-.7.43-.69-.14.13-4.61-1.77-7.2-5.58-7.28-2.95-.07-6.11,1.53-8.57,3.49-2.69,2.16-5.05,5.04-7.58,7.73-.3.34-.57.33-.67-.31.01-2.86-.76-5.67-2.25-8.11-.54-.79-1.59-1.04-2.43-.59-.42.21-1.83.86-2.86,1.7-.52.43-.72,1.03-.49,1.82,1.36,4.55,1.06,9.73-.79,14.11-1.7,4.01-4.99,7.63-8.87,8.84-2.55.82-5.21.42-6.86-1.86-2.25-3.12-1.35-8.54,2.02-13.07,2.98-3.98,7.27-6.5,11.55-8.13.5-.19.62-.52.47-.94l-.76-2.09c-.4-1.06-1.5-1.22-2.83-1.07-3.12.36-5.92,1.43-8.7,2.91-7.26,3.89-10.91,11.42-12.49,15.46-.54,1.51-1.31,2.93-2.28,4.21-1.14,1.43-2.58,2.75-5.21,5.05-.29.27-.38.7-.21,1.06.54.98,1.22,1.88,2.02,2.66.43.21.93-.09,1.13-.23,1.83-1.25,4.04-3.22,5.11-4.57.37-.46.77-.26.97.43.98,3.63,3.71,6.53,7.27,7.74,6.65,2.25,13.57-1,18.78-6.67,3.31-3.58,4.51-5.91,5.78-7.47,2.15-2.68,6.4-8.64,11.45-12.47,1.86-1.42,4.05-2.49,5.15-1.77.89.57,1.17,1.9-.24,4.49-5.15,9.42-12.74,20.47-14.14,23.16-.26.46-.03.83.46.83h7.81c.42-.03.6-.21.8-.5,3.95-6.2,7.67-12.09,11.66-18.18.23-.37.43-.09.43.07.1,1.4.43,3.33,1.29,4.61,1.26,2.12,3.55,3.4,6.01,3.38,1.68.02,3.34-.33,4.87-1.03,1.66-.62,3.01-1.42,4.01-2.15.6-.42.72.29.69.39-.92,4.91.21,10.73,5.11,13.17,5.84,2.86,12.26-1.17,15.97-4.84.36-.36.74-.31.79.44.09,1.4.72,3.05,1.86,4.22,3.09,3.11,9.35,1.86,15.61-2.99,4.04-3.11,8.24-7.5,12.05-12.15.14-.17.26-.46-.03-.76-.57-.6-1.42-1.29-1.99-1.83-.26-.23-.64-.16-.86,0-3.91,3.72-7.43,7.94-12.49,11.45-1.72,1.19-4.44,2.15-5.67.5-.49-.64-.43-1.53.04-2.72,1.47-3.68,24.9-39.36,26.13-41.46"/>
    <path class="st0" d="M143.75,47.08c.1.53.31.63.56.57,1.34-.36,2.49-1.2,3.26-2.35.72-1.03,1.04-2.52.34-3.12-.63-.53-1.65-.39-2.4.29-1.31,1.15-1.97,2.88-1.76,4.61M84.03,93c-8.73.06-16.43-5.34-17.32-14.7-.51-4.87.89-9.74,3.91-13.6,2.6-3.39,7.01-6.2,10.73-6.88,1.2-.23,2.83-.09,3.51.72,1.06,1.23.76,2.58-.3,3.12-2.85,1.45-6.27,3.94-7.96,7.33-1.59,2.94-1.42,6.52.44,9.29,3.51,5.3,13.3,5.44,22.38-3.01,2.26-2.08,4.26-4.06,6.31-6.41,4.01-4.58,5.34-6.25,10.66-13.64.06-.09.09-.2.06-.24-.04-.1-.11-.11-.27-.14-3.55.11-6.65,1.17-9.66,3.42-.86.63-2.12.54-2.66-.29-.6-.94-.17-2.18.83-2.86,4.84-3.38,10.13-3.98,15.54-4.89,0,0,.37,0,.69-.39,2.22-2.86,3.89-5.42,6.25-8.3,2.39-2.92,5.47-5.61,7.81-7.63,3.29-2.82,5.4-3.76,7.53-4.94.57-.29-.07-.64-.24-.64-11.95-2.25-24.36-5.15-36.22-.76-8.21,3.06-11.82,9.59-10.09,13.94,1.23,3.09,5.3,3.58,9.1,1.72,3.15-1.53,6.08-4.04,8.16-7.24,1.14-1.79,3.59-.5,2.28,2.6-3.48,8.16-10.1,14.63-18.18,14.9-6.88.23-11.32-4.84-11.31-11.08.03-12.31,13.74-20.41,28.12-21.62,17.35-1.43,33.77,3.19,50.99,5.28,13.19,1.59,25.85,1.63,39.11-1.43,1.57-.33,2.66.67,2.58,2.25-.14,2.29-1.92,4.49-6.28,6.87-4.97,2.73-10.16,3.56-15.6,3.61-13.11.11-25.33-5.01-38-7.76.01.56.17,1.22-.29,1.57-7.01,5.15-13.35,10.4-17.6,17.77-.14.17-.06.34.19.31,3.69-.19,7-.29,10.45-.57.59-.04.62-.19.57-.63-.38-2.76.62-5.53,2.66-7.43,2.29-2.05,5.15-2.29,7.06-.8,2.15,1.67,1.96,4.71.79,6.97-1.07,2.01-2.91,3.5-5.09,4.14,0,0-.4.09-.34.44.07.57,2.68,2.02,2.89,2.4.21.37.1.93-.29,1.36-.31.38-.77.6-1.26.6-.44,0-.72-.16-1.29-.47-1.36-.73-2.58-1.71-3.58-2.89-.34-.42-.52-.43-1.33-.37-3.72.21-9.53.77-13.45,1.26-.96.11-1.1.3-1.29.63-6.27,10.33-12.97,21.48-20.32,28.95-7.87,8-14.43,10.1-21.38,10.16"/>
    <path class="st0" d="M160.01,9.8C78.3,9.8,12.09,32.36,12.09,60s66.22,50.2,147.92,50.2,147.92-22.58,147.92-50.2S241.7,9.8,160.01,9.8M160.01,114.75C75.33,114.75,6.69,90.24,6.69,60S75.33,5.25,160.01,5.25s153.3,24.5,153.3,54.75-68.64,54.75-153.3,54.75"/>
  </g>
</svg>