<?xml version="1.0" encoding="UTF-8"?>
<svg id="Layer_1" xmlns="http://www.w3.org/2000/svg" version="1.1" viewBox="0 0 387 140">
  <!-- Generator: Adobe Illustrator 29.4.0, SVG Export Plug-In . SVG Version: 2.1.0 Build 152)  -->
  <defs>
    <style>
      .st0 {
        fill: #ce171f;
      }
    </style>
  </defs>
  <path class="st0" d="M230.46,42.8c.15-.3.24-.63.25-.96,0-.25-.57-1.26-2.37-1.66-1.57-.4-10.86-1.77-15.79,7.01l-2.05,4.07c-3.56,6.93-9.78,18.21-15.17,24.62-4.99,5.96-14.4,12.39-18.89,12.6-.33.03-.66,0-.97-.11-.31-.1-.6-.27-.85-.48-.35-.5-.52-1.1-.47-1.71,0-1.83.98-5.28,5.85-13.7,4.95-8.84,12.05-19.14,17.94-28.24,0-.07,0-.15.07-.17l.08-.09c.09-.24.15-.48.18-.74-.01-.3-.09-.6-.24-.87l-.21-.2-.1-.15-.18-.21h-.13l-.11-.11c-2.38-1.15-5.03-1.57-7.65-1.22-2.61.35-5.07,1.46-7.05,3.2-6.5,5.78-18.71,24.66-22.2,37.88,0,.03-.01.06-.03.08-.01.02-.03.05-.06.06-2.1,3.22-4.77,6.03-7.87,8.3-2.2,1.76-4.11,2.02-5.93.59h-.12c-.44-.3-1.19-.98-1.19-3.25,0-2.65,1-6.76,5.41-15.29l2.09-3.63,1.97-3.24,2.28-3.52s1.74-2.59,1.76-2.59l5.32-8.09c1.46-2.53,2.61-4.31,3.31-5.68.19-.24.33-.52.4-.81.07-.3.08-.61.01-.91-.14-.36-.35-.7-.62-.97-.27-.28-.6-.5-.96-.64-3.24-1.76-8.81-2.59-15.35,4.01-.04.04-.09.07-.15.09-.06.01-.12.01-.17,0-.06,0-.11-.02-.16-.05-.05-.03-.09-.07-.11-.12-.39-.85-.83-1.68-1.34-2.47-.95-1.03-2.11-1.85-3.4-2.4-1.29-.55-2.68-.81-4.09-.78-4.8-.19-14.38,2.02-29.53,18.44-6.76,7.33-10.97,15.02-12.63,22.42l-.09.27c-.68,1.99-.92,4.1-.7,6.19.09,6.2,2.37,11.69,5.59,13.33,6.82,3.88,17.13-.14,26.35-10.68.06-.05.12-.08.2-.09.07-.01.15-.01.22,0,.07.03.13.08.17.15.04.07.06.14.06.22.65,4.83,2.17,8.3,4.74,10.27,4.44,3,9.25,2.67,15.42-1.08,2.82-1.82,5.29-4.16,7.26-6.88.04-.08.1-.13.18-.16.08-.03.17-.03.25,0,.08.02.15.05.21.11.06.05.1.12.12.2.4,2.94,1.88,5.62,4.15,7.52,1.98,1.59,13.05,2.75,27.65-9.98.03-.04.07-.07.11-.09.04-.02.09-.03.14-.03s.1.01.14.03c.04.02.08.05.11.09.08.06.13.14.14.24.01.09,0,.19-.06.27-6.77,12.92-26.1,43.2-58.43,41.52-1.29-.1-2.52-.57-3.53-1.37-1.02-.79-1.78-1.87-2.19-3.09-.41-1.22-.45-2.54-.12-3.79.33-1.25,1.03-2.37,1.99-3.22.16-.22.26-.47.31-.74.04-.27.03-.54-.05-.8-.06-.24-.18-.47-.34-.65-.17-.19-.38-.33-.61-.42-2.1-.88-4.45-.93-6.59-.15-2.14.78-3.91,2.33-4.96,4.34-.79,1.54-1.18,3.26-1.14,4.99.04,1.73.52,3.43,1.38,4.93.83,1.48,4.31,6.26,14.56,7.2,6.85.66,20.95.34,36.61-8.3,15.98-8.95,29.23-23.73,40.28-44.55,7.24-13.28,11.86-23.29,15.26-30.37,2.79-6.36,4.51-10.57,6.51-13.7M131.01,74.98c-6.56,8.7-13.05,12.03-16.08,12.03-.79,0-1.04-.24-1.19-.44-1.26-1.6.79-8.46,11.67-22.79,6.34-8.71,12.24-12.79,15.16-12.79.77,0,1.04.23,1.19.49,1.34,1.73-.52,9.42-10.86,23.41M102.81,55.64c-4.45,7.18-8.48,14.62-12.05,22.28-1.54,3.25-2.95,6.43-4.32,9.49-7.22,16.83-14.02,33.03-35.59,43.63-12.92,6.52-27.49,6.17-33.62,2.08-2.92-1.89-4.47-4.51-4.31-7.12.17-2.61,1.82-4.74,4.66-6.28,1.73-.93,2.46-.93,2.73-.83.27.09.3,1.19.37,2.16-.06,1.94.41,3.87,1.36,5.56.83,1.22,2.11,2.07,3.56,2.37,5.07,1.33,13.5-1.19,18.26-4.22,14.54-9.03,19.17-21.88,23.49-33.95l2.49-6.9,1.04-2.65c.03-.09.02-.19,0-.28-.03-.09-.08-.17-.15-.23-.08-.03-.16-.05-.24-.05s-.17.02-.24.05c-7.12,6.18-18.63,15.65-29.73,20.87-19.24,9.72-29.33,5.79-33.99.78C-1.39,94.39-.2,79.08,3.29,70.15,26.92,9.08,91.15,1,98.56.27c11.67-1.19,21.5,1.53,25.63,7.38,6.9,10.12-2.8,22.75-12.69,25.41-3.14.87-14.17,1.12-14.65-4.03-.64-6.19,16.28-8.99,11.32-18.74-.96-2.03-4.47-2.37-10.18-1.19-21.89,4.69-62.28,23.79-77.51,69.22-1.55,4.5-3.17,14.19,1.77,16.83,9.32,5.18,39.29-11.7,60.64-40.47,12.07-18.15,27.1-12.48,27.29-12.41l.26.09c.49.21,1.19.46,1.19,1.19.15,1.19-5.73,7.58-8.83,12.1M377.7,62.31c4.08-5.73,8.3-12.6,9.01-13.66.65-1.77-1.86-3.14-1.96-3.16-3.82-2.46-9.67-1.04-14.87,3.71-.12.06-.21.14-.39.06-.06,0-.11-.03-.15-.06-.04-.04-.07-.09-.07-.15-.47-.88-1.01-1.72-1.61-2.52-.96-1.04-2.14-1.87-3.45-2.42-1.31-.55-2.72-.82-4.14-.79-4.52-.19-14.32,2.03-29.18,18.07-5.88,6.73-10.27,14.63-12.9,23.17-.02.05-.04.1-.08.14-.04.04-.08.07-.13.1l-.33.3c-6.13,4.4-15.2,8.51-21.26,9.13-2.02.11-4-.55-5.54-1.85-1.08-1.09-2.16-4.22-1.99-7.5.01-.09.05-.18.11-.25.06-.07.14-.12.23-.15,3.17-.13,8.3-1.19,19.35-9.87,9.63-8.01,13.83-14.92,13.83-21.49v-.12c-.11-4.46-1.54-8.13-4.67-10.26-9.97-6.85-27.2,5.35-35.15,16.94-1.49,2.04-10.27,15.77-9.93,26.19.2,6.63,1.86,11.38,5.78,15.08,7.12,7.19,25.42,4.16,38.89-6.86.06-.06.14-.1.22-.12.08-.01.17,0,.24.03.07.04.13.09.17.16.04.07.07.14.07.22.85,4.43,2.9,7.78,5.16,9.16,7.01,3.87,17.05-.38,26.53-10.68.05-.06.12-.1.2-.12.08-.02.16,0,.23.02.07.03.12.07.16.13.04.06.06.13.06.2.65,4.83,2.37,8.04,4.75,10.02,3.76,2.97,9.49,2.37,16.61-1.77,3.07-1.46,9.81-5.93,8.23-9.34-1.1-2.37-4.74-.78-7.12.17l-1.03.38h-.18c-2.57,1.34-5.02,1.19-6.16.53-.61-.39-1.19-1.38-1.19-3.19,0-2.98,1.28-7.33,5.58-15.21,2.42-4.34,5.11-8.52,8.06-12.53M308.87,51.03c2.09-.33,3.12.43,3.07,2.44-.08,2.98-3.81,8.2-9.3,13.32-3.26,3.14-7,5.72-11.08,7.66l-.49.26c-.06.04-.14.06-.21.06s-.15-.02-.21-.06c-.06-.06-.1-.14-.12-.22-.02-.08-.02-.17,0-.25,4.67-14.87,13.58-22.46,18.34-23.17M350.02,77.81c-6.76,7.82-13.32,11.86-16.09,11.93-.22.02-.43,0-.64-.07-.21-.07-.39-.19-.55-.34-1.32-1.7.74-8.72,11.41-22.66,6.69-8.62,12.43-12.63,15.16-12.66.22-.02.44.02.65.1.21.08.39.21.54.37,1.3,1.7-.51,9.42-10.51,23.32M244.28,69.97c-5.81,11.32-9.49,17.45-15.52,28.47-2.58,4.95-5.51,9.71-8.78,14.24-1.34,1.99-2.82,3.89-4.41,5.68-2.49,2.95-1.67,3.22,1.71,2.8,3.18-.5,9.96-1,12.96-1.25,9.26-.97,18.61-.11,27.54,2.51,17.97,5.93,30.09,3.86,35.77.7,5.69-2.75,10.44-6.28,8.79-8.72-.72-1.03-5.65.43-7.04.62-3.39.38-6.83.21-10.17-.51-6.15-.95-10.39-2.94-16.17-4.34-4.76-1.36-9.68-2.12-14.63-2.28-1.43-.07-8.12.78-10.29,1.07-1.79.19.94-3.56,1.84-4.67,1.73-2.44,3.31-4.97,4.75-7.59,11.77-22.77,23.11-46.97,38.74-67.8,14.08-18.34,23.73-22.87,28.47-23.6,4.75-.72,3.56-4.28-.89-4.39-7.61-.13-30.55,5.74-44.51,23.22-7.08,8.87-21.28,32.61-28.15,45.84Z"/>
</svg>