<?xml version="1.0" encoding="UTF-8"?>
<svg id="Layer_1" xmlns="http://www.w3.org/2000/svg" version="1.1" viewBox="0 0 400 120">
  <!-- Generator: Adobe Illustrator 29.4.0, SVG Export Plug-In . SVG Version: 2.1.0 Build 152)  -->
  <defs>
    <style>
      .st0 {
        fill: #fff;
      }
    </style>
  </defs>
  <path class="st0" d="M74.05,117L111.6,1.67h66.15c-2.62,11.11-6.88,22.1-9.92,33.49,8.87-10.14,17.33-22.54,26.61-33.49h64.18l-44.23,59.79,17.64,55.53h-66.48c-4.69-11.83-8.14-24.16-12.86-35.98-4.94,11.51-8.79,24.06-13.19,35.98h-65.43Z"/>
  <path class="st0" d="M239.86,83.7c-6.58-14.14-5.96-34.35,3.47-46.93C267.62,3.37,309.04-5.14,348.35,2.73c21.15,5.12,44.96,19.74,50.3,42.83,5.18,23.49-7.67,44.46-27.26,57.54-28.49,19.28-71.6,22.48-103.01,7.42-11.1-5.18-23.27-15.28-28.52-26.82ZM308.59,84.69c7.22,4.19,18.75-2.81,23.58-20.68,1.6-7.22,1.74-17.08-4.88-22.13-8.43-6.4-19.57,4.07-23.31,17.39-3.31,13.23-.64,22.35,4.61,25.41Z"/>
  <path class="st0" d="M97.89,1.72h-63.77L.05,116.82h60.57L97.89,1.72Z"/>
  <path class="st0" d="M.04,116.88v-.06s-.04,0-.04,0l.04.06Z"/>
</svg>