<?xml version="1.0" encoding="UTF-8"?>
<svg id="Layer_1" xmlns="http://www.w3.org/2000/svg" version="1.1" viewBox="0 0 576 100">
  <!-- Generator: Adobe Illustrator 29.4.0, SVG Export Plug-In . SVG Version: 2.1.0 Build 152)  -->
  <defs>
    <style>
      .st0 {
        fill: #ee3124;
      }

      .st0, .st1, .st2 {
        fill-rule: evenodd;
      }

      .st1 {
        fill: #fff;
      }

      .st2 {
        fill: #f78e1e;
      }
    </style>
  </defs>
  <path class="st1" d="M203.15,97.97c3.47.9,7.04,1.38,10.63,1.44,3.68-.05,7.33-.57,10.88-1.57,5.12-1.54,9.81-4.27,13.67-7.97,3.86-3.7,6.79-8.27,8.54-13.32,1.89-4.91,2.93-10.1,3.07-15.36-.14-5.15-1.1-10.24-2.86-15.08-1.86-4.95-4.82-9.42-8.65-13.06-3.84-3.64-8.45-6.36-13.5-7.95-3.55-.93-7.2-1.42-10.88-1.47-3.68.04-7.34.57-10.88,1.57-5.1,1.64-9.76,4.43-13.6,8.16-3.85,3.73-6.78,8.3-8.58,13.34-1.76,4.93-2.7,10.12-2.76,15.36.13,5.41,1.09,10.76,2.83,15.88h-31.12c-3.39-.11-6.6-1.56-8.93-4.02-2.33-2.46-3.61-5.74-3.54-9.13V.28h-19.2v64.52c-.13,8.57,3.14,16.84,9.09,23,5.95,6.16,14.11,9.71,22.67,9.87h35.12v-12.6c4.39,6.21,10.73,10.78,18,13v-.09ZM197,69.55c-.18-2.24-.65-5.19-.65-7.59.11-2.8.42-5.6.92-8.36.42-2.12,1.1-4.19,2.03-6.14,1.22-2.86,3.25-5.29,5.84-7.01,2.59-1.72,5.62-2.65,8.72-2.66,3.13,0,6.2.89,8.83,2.59,2.63,1.69,4.72,4.11,6.01,6.97.94,2.01,1.61,4.14,2,6.33.49,2.53.77,5.1.86,7.68-.16,2.72-.48,5.43-.95,8.11-.35,2.13-1.01,4.2-1.97,6.14-1.26,2.91-3.33,5.4-5.97,7.16-2.64,1.77-5.72,2.73-8.9,2.79-3.12-.06-6.17-1.02-8.75-2.77-2.59-1.75-4.62-4.21-5.84-7.09-.99-1.94-1.71-4.01-2.12-6.14h-.06ZM318.51,82.61c-2.34,5.16-6.12,9.54-10.88,12.63-4.76,3.08-10.3,4.73-15.97,4.76-7.18-.17-14.07-2.88-19.45-7.65v5.19h-17.63V0h17.97v30.72c5.33-4.6,12.13-7.16,19.17-7.22,4.66.03,9.25,1.07,13.46,3.07,6.52,3.8,11.58,9.67,14.38,16.68,2.22,5.9,3.39,12.13,3.47,18.43-.02,7.17-1.54,14.25-4.46,20.8l-.06.12ZM273.01,51.49c.53-1.73,1.31-3.36,2.33-4.85,1.36-2.27,3.27-4.16,5.56-5.5,2.29-1.33,4.88-2.06,7.53-2.12,3.1.02,6.12.97,8.66,2.73,3.94,3.19,6.52,7.76,7.22,12.78.31,2.39.47,4.81.49,7.22,0,2.03-.37,4.45-.55,6.42-.51,3.29-1.72,6.43-3.53,9.22-1.47,2.42-3.6,4.37-6.15,5.61-2.54,1.25-5.39,1.74-8.2,1.41-2.81-.32-5.47-1.45-7.67-3.24-2.19-1.79-3.83-4.17-4.71-6.86-1.42-4.28-2.17-8.76-2.24-13.27.06-3.28.46-6.54,1.2-9.74l.06.18ZM345.94,97.57h-18.22V0h18.22v97.57ZM397.25,75.21c.28-2.92.74-6.73.74-9.74,0-1.57-.28-3.29-.28-4.76-1.77,1-3.66,1.75-5.62,2.24l-11.27,2.73c-1.96.49-3.86,1.17-5.68,2.03-2.07.88-3.88,2.27-5.28,4.02-1.03,1.31-1.56,2.94-1.51,4.61,0,.74.13,1.48.37,2.18.58,1.45,1.44,2.77,2.55,3.87,1.1,1.1,2.42,1.97,3.87,2.55,1.93.61,3.94.94,5.96.95,4.66-.04,9.18-1.65,12.81-4.58.95-.75,1.75-1.67,2.35-2.73.6-1.05.98-2.22,1.12-3.42l-.12.03ZM414.94,87.5c-.03,3.46.77,6.87,2.34,9.95h-17.67c-.4-2.15-.77-4.3-1.04-6.45-5.53,4.99-12.64,7.86-20.09,8.1-7.44.24-14.73-2.17-20.56-6.8-4.03-3.18-6.65-7.81-7.31-12.9v-1.75c0-3.29.78-6.52,2.29-9.44,1.51-2.92,3.71-5.42,6.4-7.3,3.7-2.61,7.88-4.46,12.29-5.47,4.83-1.15,9.72-1.99,14.65-2.52,1.87-.44,3.77-.77,5.68-.98,1.52-.21,2.92-.97,3.93-2.13,1.01-1.17,1.55-2.66,1.54-4.2.02-.98-.16-1.95-.52-2.86-.92-1.92-2.5-3.43-4.45-4.27-2.46-1.27-5.19-1.94-7.96-1.94-2.44,0-4.85.49-7.1,1.44-1.78.76-3.32,2-4.45,3.59-1.12,1.58-1.79,3.45-1.91,5.38h-15.79c.33-3.71,1.27-7.34,2.77-10.75,1.26-2.61,3.14-4.88,5.47-6.61,1.98-1.5,4.17-2.68,6.51-3.5,10.49-3.64,21.95-3.37,32.26.77,4.31,1.92,7.91,5.14,10.29,9.22,1.61,3.9,2.47,8.07,2.55,12.29v38.89l-.12.25ZM434.67,97.48l-21.11-71.61h17.97l12.78,45.56,11.4-45.56h16.5l13.03,46.08,11.46-46.08h18.16l-20.52,71.71h-16.74l-13.03-48.42-12.97,48.39-16.93-.06ZM549.93,38.59c1.77.62,3.33,1.74,4.47,3.23,1.14,1.49,1.83,3.28,1.98,5.15h16.38c0-3.92-1.09-7.77-3.13-11.12s-4.95-6.08-8.43-7.9c-9.47-4.73-20.43-5.5-30.48-2.15-10.78,3.32-16.07,10.05-16.07,20.68.02,2.64.57,5.25,1.62,7.67,1.06,2.42,2.59,4.6,4.52,6.4,4.68,3.68,10.22,6.1,16.1,7.04l14.56,2.92c5.9,1.04,9.37,7.47,4.27,12.29-5.1,4.82-11.92,4.09-17.64,1.84-2.23-.95-4.16-2.5-5.58-4.47-1.41-1.97-2.26-4.29-2.44-6.71h-16.38c.08,4.41,1.26,8.72,3.41,12.57,2.57,4.28,6.31,7.74,10.78,9.95,9.71,4.47,20.74,5.16,30.94,1.94,4.86-1.18,9.16-3.99,12.18-7.97,3.02-3.98,4.58-8.88,4.41-13.87.23-3.59-.56-7.18-2.27-10.34-1.71-3.17-4.28-5.79-7.41-7.57-3.68-1.93-7.64-3.29-11.74-4.02l-17.85-3.29c-1.13-.05-2.22-.44-3.13-1.11s-1.6-1.6-1.99-2.66c-.39-1.06-.45-2.22-.19-3.32.27-1.1.85-2.1,1.68-2.87,4.92-4.49,11.46-3.75,17.39-2.06v-.25Z"/>
  <path class="st0" d="M47.97,0H.66v48.79c.02,12.93,5.17,25.32,14.3,34.47,9.14,9.15,21.52,14.31,34.45,14.35h48.79v-47.4h-31.55c-4.95-.02-9.69-2-13.19-5.51-3.5-3.5-5.47-8.25-5.49-13.2V0Z"/>
  <path class="st2" d="M65.17,0h-14.29v31.55c.02,4.17,1.68,8.17,4.63,11.13,2.95,2.95,6.95,4.62,11.13,4.63h31.55v-14.41h-20c-3.44,0-6.74-1.34-9.18-3.76-2.44-2.42-3.83-5.7-3.85-9.14V0ZM80.96,0h-12.72v20.03c.02,2.65,1.08,5.19,2.95,7.06,1.87,1.87,4.41,2.94,7.06,2.95h20.03v-12.75h-9.55c-2.04-.02-3.99-.83-5.42-2.28-1.44-1.44-2.25-3.4-2.26-5.43V0h-.09ZM98.14,0h-14.16v9.59c0,1.26.48,2.47,1.36,3.37.88.9,2.08,1.41,3.34,1.43h9.49V0h-.03Z"/>
</svg>