<?xml version="1.0" encoding="UTF-8"?>
<svg id="Layer_1" xmlns="http://www.w3.org/2000/svg" version="1.1" viewBox="0 0 399.99 46.01">
  <!-- Generator: Adobe Illustrator 29.5.0, SVG Export Plug-In . SVG Version: 2.1.0 Build 137)  -->
  <defs>
    <style>
      .st0 {
        fill: #fff;
      }
    </style>
  </defs>
  <path class="st0" d="M256.67,25.65h14.89v3.44h-14.89v-3.44h0ZM9.06,4.75l-1.33,34.58v.6c0,2.93.87,3.53,5.53,3.86v1.6c-3.4-.27-4.73-.33-6.6-.33s-3.2.07-6.66.33v-1.6c4.66-.33,5.33-.87,5.46-4.46L6.86,6.61v-.4c0-3.07-.93-3.73-5.53-4V.54c2.6.2,3.6.27,5.46.27,2.47,0,3.8-.07,6.33-.33l12.39,33.72L38.1.48c3,.27,4.4.33,6.4.33,1.67,0,2.73-.07,5.26-.27v1.67c-4.53.27-5.53.93-5.53,3.93v.47l.73,32.72c.07,3.6.67,4.13,5.46,4.46v1.6c-4.2-.4-5.8-.53-8.33-.53s-4.13.13-8.33.53v-1.6c4.53-.27,5.53-1,5.53-4.13v-.33l-.6-34.52-10.99,29.72-.8,2.2-.93,2.47-.87,2.53-.73,2.2h-1l-.73-2.13-.93-2.6-.93-2.6-.8-2.33L9.05,4.75h0ZM59.1,26.28c.67-7.66,3.2-11.59,7.46-11.59s6.53,3.73,6.93,11.59h-14.39ZM67.76,43.73c-6.06,0-8.73-4.66-8.8-15.06h19.86c-.13-10.26-4.33-15.73-12.19-15.73s-12.99,6.46-12.99,16.73,5,16.26,13.59,16.26c6.53,0,10.79-4.07,11.66-10.93h-2.67c-.8,5.66-3.73,8.73-8.46,8.73h0ZM82.79,15.41v-1.2c3.8-.33,6.06-.73,8.8-1.53.33,2.47.47,3.53.6,5.53v.73c1.47-3.8,4.33-6,7.8-6s5.8,2.2,5.8,5.4c0,1.93-1.13,3.2-2.8,3.2-1.53,0-2.73-.93-2.73-2.27,0-.13.07-.4.13-.67l.13-.67v-.6c0-.93-.8-1.6-2-1.6-3.46,0-5.66,4.2-5.66,10.79v13.93c0,2.86.67,3.4,4.73,3.6v1.33c-3.66-.33-5.06-.4-7.4-.4s-3.8.07-7.46.4v-1.33c4.06-.2,4.8-.73,4.8-3.6v-21.79c-.07-2.87-.4-3.2-3.86-3.26h-.88ZM131.27,12.35v10.99h-1.47c-1.2-5.8-3.66-8.6-7.73-8.6-5,0-7.93,5.4-7.93,14.93s2.6,14.06,7.73,14.06c4.13,0,6.6-2.93,7.4-8.8h2.73c-.87,7.13-4.66,11-10.66,11-7.73,0-12.99-6.53-12.99-16.26s5.33-16.73,13.19-16.73c2.87,0,4.66.73,6.8,2.8l1.8-3.4h1.13ZM142.21,26.28c.67-7.66,3.2-11.59,7.46-11.59s6.53,3.73,6.93,11.59h-14.39ZM150.87,43.73c-6.06,0-8.73-4.66-8.8-15.06h19.86c-.13-10.26-4.33-15.73-12.19-15.73s-12.99,6.46-12.99,16.73,5,16.26,13.59,16.26c6.53,0,10.79-4.07,11.66-10.93h-2.67c-.8,5.66-3.73,8.73-8.46,8.73h0ZM180.39,44.13c-4.8,0-7.33-5-7.33-14.53s2.33-14.39,7.13-14.39,7.46,5.06,7.46,14.86c0,9.26-2.47,14.06-7.26,14.06h0ZM192.91,38.47V0c-3.33.89-6.33,1.42-10.06,1.82v1.13c4.2,0,4.73.47,4.73,3.93v11.66c-2.47-4-4.4-5.2-8-5.2-7.13,0-12.13,6.73-12.13,16.33s5.06,16.33,12.33,16.33c3.8,0,6.4-1.73,8.26-5.46.27,2.53.27,2.8.93,5.33,2.73-.87,3.86-1.13,7.8-1.6l1-.13v-1.13c-4.46-.13-4.86-.47-4.86-4.53h0ZM205.77,26.28c.67-7.66,3.2-11.59,7.46-11.59s6.53,3.73,6.93,11.59h-14.39ZM214.43,43.73c-6.06,0-8.73-4.66-8.8-15.06h19.86c-.13-10.26-4.33-15.73-12.19-15.73s-12.99,6.46-12.99,16.73,5,16.26,13.59,16.26c6.53,0,10.8-4.07,11.66-10.93h-2.67c-.8,5.66-3.73,8.73-8.46,8.73h0ZM231.14,46v-11.13l1.46-.07c1.2,6.06,4,9,8.66,9,3.93,0,6.86-2.6,6.86-6,0-2.27-1.27-3.8-4.53-5.26l-2.53-1.13-3.06-1.4c-4.86-2.27-6.4-4.13-6.4-8,0-5.26,4.13-8.86,10-8.86,2.6,0,4.53.6,6.8,2.13l1.13-2.73h1.2v10.33h-1.53c-.6-5.33-2.8-7.86-7-7.86-3.53,0-6.26,2.4-6.26,5.53,0,2.67,1,3.53,7.06,6.2l2.8,1.2c5.06,2.2,6.86,4.33,6.86,8.26,0,5.6-4.46,9.6-10.73,9.6-3.06,0-5.46-.8-8-2.8l-1.6,3h-1.2,0ZM289.72,23.01c3.53,0,5.53.6,7.06,2.13s2.4,4.4,2.4,7.6c0,6.66-3.33,10.4-9.26,10.4h-2.4c-3.53,0-4.13-.53-4.13-3.47v-16.66h6.33ZM283.39,2.82h5.66c5.6,0,8.06,2.73,8.06,8.93,0,3.06-.73,5.26-2.2,7-1.47,1.67-3.26,2.2-7,2.2h-4.53V2.83h.01ZM303.04,11.62c0-3.47-1.47-6.53-4-8.46-2.27-1.67-4.86-2.4-9.2-2.4h-17.52v1.67c4.8.27,5.46.8,5.46,4.4v32.32c0,3.6-.53,4.06-5.46,4.46v1.6h16.86c4.93,0,7.6-.6,10.39-2.33,3.33-2.13,5.53-6.2,5.53-10.39,0-3.6-1.53-6.86-4.13-8.86-1.4-1.07-2.86-1.67-5.26-2.13,4.8-1.8,7.33-5.2,7.33-9.86h0v-.02ZM315.99,26.28c.67-7.66,3.2-11.59,7.46-11.59s6.53,3.73,6.93,11.59h-14.39,0ZM324.65,43.73c-6.06,0-8.73-4.66-8.8-15.06h19.86c-.13-10.26-4.33-15.73-12.19-15.73s-12.99,6.46-12.99,16.73,5,16.26,13.59,16.26c6.53,0,10.79-4.07,11.66-10.93h-2.67c-.8,5.66-3.73,8.73-8.46,8.73h0ZM339.24,15.68v-1.13c3.87-.53,6.13-1.07,8.8-2,.33,1.53.53,3.26.67,5.8,2.4-3.6,5.13-5.2,9-5.2s7.46,2.07,8.8,5.33c.67,1.6,1,3.47,1,6v15.99c0,2.86.67,3.4,4.73,3.6v1.33c-3.53-.33-4.86-.4-7.26-.4s-3.8.07-7.26.4v-1.33c3.6-.13,4.46-.8,4.46-3.46v-16.33c0-5.8-1.73-8.13-6-8.13-4.53,0-6.93,2.87-6.93,8.33v16.13c0,2.67.87,3.33,4.33,3.46v1.33c-3.47-.33-4.8-.4-7.2-.4s-3.73.07-7.2.4v-1.33c4.06-.2,4.73-.73,4.73-3.6v-21.59c-.07-2.73-.47-3.13-3.8-3.13-.2,0-.53-.07-.87-.07h0ZM374.81,45.2l18.06-29.72h-8.2c-4.33,0-5.4.93-7.8,6.93h-1.33l1.53-8.66h22.92l-18.12,29.72h7.8c4.53,0,6.4-1.8,8.4-7.86h1.4l-1.73,9.6h-22.93Z"/>
</svg>