<?xml version="1.0" encoding="UTF-8"?>
<svg id="Layer_1" xmlns="http://www.w3.org/2000/svg" version="1.1" viewBox="0 0 534 120">
  <!-- Generator: Adobe Illustrator 29.4.0, SVG Export Plug-In . SVG Version: 2.1.0 Build 152)  -->
  <defs>
    <style>
      .st0 {
        fill: #c6d636;
      }

      .st1 {
        fill: #7f187f;
      }

      .st2 {
        fill: #d57dea;
      }

      .st3 {
        fill: #82d170;
      }

      .st4 {
        fill: #f8cf1c;
      }
    </style>
  </defs>
  <path class="st1" d="M193.71,29.14h-24.22c-.52,0-1.04.1-1.52.29-.48.2-.92.49-1.29.86-.37.37-.67.81-.87,1.29-.2.48-.31,1-.31,1.52v5.38c.03.69.32,1.34.82,1.82.5.48,1.16.74,1.85.74h3.98c.06,0,.12.01.17.04.05.03.1.07.12.13.04.06.07.13.08.2.01.07.01.15,0,.22l-9.48,28.22c-.04.07-.1.13-.17.17-.07.04-.15.06-.24.06s-.16-.02-.24-.06c-.07-.04-.13-.1-.17-.17l-14.21-38.23v-.04c-.19-.46-.5-.86-.91-1.15-.4-.29-.88-.46-1.38-.49h-8.55c-.5.04-.97.22-1.38.5-.41.29-.73.68-.94,1.13v.04l-14.19,38.23c-.02.08-.08.16-.14.21-.07.05-.15.08-.24.08-.09,0-.19-.01-.27-.06-.08-.04-.15-.11-.2-.19l-9.48-28.27c-.02-.07-.02-.15,0-.22.02-.07.05-.14.09-.2.03-.05.08-.09.13-.12.05-.03.11-.05.16-.06h3.98c.68,0,1.34-.28,1.83-.75.49-.48.78-1.12.81-1.8v-5.38c0-.52-.11-1.04-.31-1.52-.2-.48-.5-.92-.87-1.29-.37-.37-.81-.66-1.29-.86-.48-.2-1-.3-1.52-.3h-24.19c-.42,0-.83.1-1.2.28-.37.18-.7.45-.96.78-.24.31-.39.68-.46,1.07-.07.39-.04.79.08,1.16.33.97.76,2.15,1.14,3.37s.82,2.35,1.18,3.4c.17.52.5.97.94,1.29.44.32.97.5,1.51.51h4.08c.11,0,.21.03.29.09.08.06.15.15.17.25l18.83,54.96c.17.52.49.98.93,1.3.44.33.97.5,1.52.51h5.82c.53,0,1.05-.16,1.49-.46.44-.3.77-.73.96-1.22,5.2-14.82,15.11-43.2,15.51-44.21.03-.11.08-.2.17-.27.08-.07.19-.11.3-.11.1,0,.21.02.29.08.08.06.15.15.17.25.38,1.01,10.28,29.38,15.45,44.2.2.49.53.92.97,1.23.43.31.95.48,1.48.49h5.84c.55,0,1.08-.18,1.52-.51s.76-.78.93-1.3l18.77-54.96c.17-.34.38-.34.47-.34h4.08c.54,0,1.07-.18,1.5-.5.44-.32.77-.76.95-1.27.38-1.05.76-2.27,1.18-3.4.43-1.13.82-2.4,1.18-3.36.12-.37.15-.77.09-1.16-.07-.39-.22-.75-.46-1.07-.25-.35-.58-.64-.96-.84-.38-.2-.81-.3-1.24-.31l.02.03ZM477.21,87.09h-4.41c-.16,0-.33-.03-.48-.1-.15-.06-.29-.16-.4-.28-.11-.12-.2-.26-.26-.41-.06-.15-.09-.32-.08-.48V31.62c0-.23-.05-.47-.14-.68-.09-.21-.23-.41-.4-.57-.17-.16-.37-.29-.59-.37-.22-.08-.45-.12-.69-.11h-12.86c-.27,0-.53.06-.78.18-.24.12-.45.29-.62.5l-5.34,6.6c-.3.37-.43.85-.38,1.33.05.47.3.91.67,1.2.29.24.65.37,1.02.38h1.63c.33.02.64.16.87.39.23.23.38.54.4.87v44.36c-.01.36-.13.72-.34,1.01-1.39,1.8-4.49,5.63-6.01,7.53-.16.17-.28.38-.36.6-.08.22-.11.46-.1.7.02.24.08.47.19.68.11.21.26.4.44.55.32.28.72.44,1.14.47h22.44c.24.02.47-.01.69-.1.22-.09.42-.23.57-.4l5.26-6.53c1.22-1.43.38-3.15-1.1-3.15v.05Z"/>
  <path class="st1" d="M462.89,22.58c5.33,0,9.66-4.29,9.66-9.59s-4.32-9.59-9.66-9.59-9.66,4.29-9.66,9.59,4.32,9.59,9.66,9.59Z"/>
  <path class="st1" d="M256.96,87.34c-3.72.16-5.58-1.56-5.58-5.8v-30.44c0-13.29-11.22-21.71-23.84-21.71-19.65,0-26.72,9.26-27.51,19.59-.01.24.02.47.1.69s.2.43.35.6c.16.18.35.32.56.42.21.1.44.16.68.17h9.8c.44-.01.86-.18,1.18-.48.32-.3.52-.71.56-1.15.51-5.39,4.15-9.34,10.24-9.34,6.73,0,10.8,3.41,10.8,11.06v6.6h-3.52c-12.06,0-20.37,1.56-25.95,5.04-5.58,3.49-8.44,9.89-8.44,17.39-.08,2.56.39,5.11,1.37,7.47.99,2.37,2.47,4.49,4.34,6.24,3.85,3.62,8.34,5.22,14.23,5.22,3.52,0,6.99-.79,10.16-2.31,3.11-1.38,5.99-3.22,8.55-5.47.24-.23.56-.37.89-.37s.65.13.89.37c.09.08.16.18.2.29,2.76,4.79,5.76,6.35,11.48,6.35,5.17,0,7.66-4.79,9.91-7.7.19-.27.29-.59.31-.92.02-.33-.05-.66-.2-.95-.15-.29-.38-.54-.66-.71-.28-.17-.6-.27-.93-.27l.04.11ZM234.31,82.44h-.08c0,.42-.68,1.01-.93,1.27-1.58,1.32-3.31,2.43-5.17,3.32-1.69.71-3.51,1.05-5.34,1-1.31.02-2.62-.22-3.83-.72-1.22-.5-2.32-1.24-3.23-2.18-1.77-1.94-2.72-4.49-2.67-7.11,0-3.95,1.49-6.6,4.49-8.58,3-1.98,7.92-2.9,13.8-2.9h2.92l.04,15.89ZM441.01,87.34c-3.73.16-5.59-1.56-5.59-5.8v-30.44c0-13.29-11.22-21.74-23.88-21.74-19.64,0-26.72,9.26-27.52,19.59-.03.48.14.94.45,1.3.32.36.76.57,1.24.6h9.8c.44-.01.86-.18,1.18-.48.32-.3.52-.71.55-1.15.52-5.39,4.16-9.34,10.25-9.34,6.73,0,10.79,3.41,10.79,11.06v6.6h-3.47c-12.06,0-20.41,1.56-25.96,5.04-5.55,3.49-8.43,9.93-8.43,17.42-.08,2.56.4,5.11,1.39,7.48.99,2.37,2.48,4.49,4.36,6.23,3.85,3.62,8.34,5.22,14.23,5.22,3.52,0,6.99-.79,10.16-2.31,3.11-1.38,6-3.22,8.55-5.47.24-.23.56-.37.89-.37s.65.13.89.37c.09.08.16.18.21.29,2.75,4.79,5.75,6.35,11.47,6.35,5.17,0,7.66-4.79,9.91-7.7.18-.27.29-.59.31-.92.02-.33-.05-.66-.2-.95-.15-.29-.38-.54-.66-.71-.28-.17-.6-.27-.93-.28v.11ZM418.4,82.44h-.09c0,.42-.68,1.01-.93,1.27-1.58,1.32-3.31,2.43-5.17,3.32-1.68.71-3.5,1.05-5.33,1-1.31.03-2.62-.22-3.83-.72-1.22-.5-2.32-1.24-3.23-2.18-1.77-1.94-2.72-4.49-2.67-7.11,0-3.95,1.48-6.6,4.49-8.58,3.01-1.98,7.92-2.9,13.8-2.9h2.92v15.89h.04ZM532.25,29.65c-.89-.46-3.13-.67-5.09-.67-2.66-.09-5.31.37-7.79,1.35l-.17.08c-.82.37-1.6.82-2.33,1.35-2.73,1.69-5.19,3.78-7.28,6.22,0,0-.93.72-1.1-.46v-6.1c0-.24-.05-.47-.14-.68-.09-.22-.23-.41-.39-.58-.17-.16-.37-.29-.59-.38s-.45-.13-.69-.13h-12.84c-.25,0-.5.05-.73.16s-.43.27-.58.47c0,0-4.08,5-5.37,6.73-.21.26-.35.58-.38.91-.04.33.02.67.16.98.15.3.38.56.66.74.29.18.62.27.95.27h1.63c.33,0,.65.14.89.38.24.24.37.55.38.89v44.57c0,.36-.1.71-.3,1.01-1.27,1.55-4.49,5.59-6.05,7.57-.14.19-.25.4-.31.63s-.08.47-.05.7c.03.23.11.46.23.67.12.2.28.38.47.53.3.25.67.39,1.06.38h27.82c.46,0,.9-.19,1.22-.51.33-.32.51-.76.53-1.22v-6.68c0-.47-.19-.91-.52-1.24-.33-.33-.78-.52-1.25-.52h-4.41c-.17,0-.33-.03-.49-.09-.16-.06-.3-.16-.41-.27-.12-.12-.21-.26-.27-.41-.06-.15-.09-.32-.09-.49v-25.99c.51-12.32,7.92-16.1,11.43-17.2l.51-.17h.13c.97-.25,1.96-.38,2.96-.38,2.77-.04,5.52.37,8.16,1.22.97.25,1.78-.82,1.78-1.76v-10.14c-.06-.38-.22-.73-.46-1.03-.24-.3-.54-.54-.9-.69h0ZM380.98,29.86h-20.17c-.34,0-.66-.15-.9-.39-.24-.24-.37-.57-.37-.9v-9.85c0-4.8,2.5-9.59,7.66-9.59,5.84,0,6.73,4.9,6.98,8.58.03.45.22.88.54,1.19.32.32.75.51,1.2.53h8.32c.22,0,.44-.06.65-.15.2-.09.38-.23.54-.39.15-.16.27-.36.35-.57.08-.21.11-.43.1-.65-.12-12.37-8.04-17.66-20.75-17.66-7.75,0-12.82,2.4-16.64,7.02-3.81,4.62-5.76,9.79-5.76,19.05v2.45c0,.32-.13.64-.36.87-.23.23-.54.36-.87.36l-34.42.08c-.23-.01-.47.03-.69.11-.22.08-.42.21-.59.37-.17.16-.31.35-.4.57-.09.21-.14.45-.14.68v6.73c0,.48.2.94.54,1.27.34.34.8.53,1.28.53h3.7c.34,0,.66.13.9.37.24.24.37.56.38.9,0,.16-.03.31-.09.46,0,0-9.48,21.92-13.29,30.66-.14.3-.38.53-.68.66-.3.13-.64.13-.95.02-.29-.15-.53-.39-.68-.68-3.93-8.8-13.5-30.62-13.5-30.62-.12-.31-.12-.65,0-.95.13-.31.37-.55.67-.68.15-.05.31-.08.46-.08h2.58c.24,0,.48-.04.7-.13.22-.09.42-.22.59-.39.17-.17.3-.37.39-.59.09-.22.14-.46.14-.7v-6.69c0-.23-.05-.47-.14-.68-.09-.22-.23-.41-.4-.57-.17-.16-.37-.29-.59-.37-.22-.08-.45-.12-.69-.1h-31.16c-.24,0-.48.04-.7.14s-.42.23-.59.4c-.17.17-.3.38-.38.6-.08.22-.12.46-.11.7,0,.29.07.57.21.82.93,1.63,3,5.55,3.6,6.68.15.26.36.49.62.65s.55.26.85.27h6.02c.25,0,.49.07.7.21.21.13.38.33.48.55,0,0,22.14,49.37,22.94,51.1.86,2.21.84,4.66-.04,6.86-1.01,4.03-7.83,11.26-11.6,9.97-2.58-.89-2.92-5.55-6.02-6.15-.57-.1-1.16-.02-1.69.21-.55.21-5.59,6.64-6.69,7.78-.27.34-.41.76-.41,1.2s.15.86.41,1.2c2.75,2.82,7.35,6.6,14.05,6.86,8.22.33,16.33-.76,23.8-14.89,0,0,23.83-57.86,26.67-64.09.12-.21.3-.38.51-.49.21-.12.45-.18.68-.18h12.57c.33,0,.65.11.89.34.24.22.39.53.4.86v44.45c0,.36-.13.72-.34,1.01-1.48,1.89-4.48,5.63-6.01,7.53-.14.18-.25.38-.32.6-.07.22-.09.45-.06.68.02.23.09.45.2.65.11.2.26.38.43.52.32.27.73.4,1.14.38h28.11c.24,0,.47-.04.7-.13.22-.09.42-.22.59-.39.17-.17.3-.37.39-.59.09-.22.14-.46.14-.7v-6.55c0-.24-.04-.48-.13-.7-.09-.22-.22-.42-.39-.59-.17-.17-.37-.3-.59-.39-.22-.09-.46-.13-.7-.13h-4.82c-.16,0-.33-.03-.48-.1-.15-.06-.29-.16-.4-.27-.11-.12-.2-.26-.27-.41-.06-.15-.09-.31-.09-.48v-44.56c0-.33.13-.64.36-.87.23-.23.54-.36.87-.36h14.86c.27,0,.53-.06.77-.18.24-.12.45-.28.62-.49,1.26-1.63,3.81-4.96,5.17-6.69.29-.38.41-.86.35-1.33-.06-.47-.31-.9-.69-1.19-.31-.23-.68-.36-1.06-.38h0Z"/>
  <path class="st1" d="M77.53,51.26l-4.9-18.16c-.08-.3-.23-.58-.45-.8-.22-.22-.49-.38-.79-.46l-18.29-4.83c-.3-.08-.61-.09-.91,0-.3.08-.57.24-.78.46l-12.24,12.19,25.66,25.53,12.24-12.19c.21-.23.37-.5.45-.81.08-.3.08-.62,0-.92Z"/>
  <path class="st1" d="M.69,79.06l4.9,18.17c.08.3.24.58.46.8.22.22.5.38.81.45l18.33,4.84c.3.08.61.09.91,0,.3-.08.57-.24.78-.47l12.24-12.19-25.65-25.52-12.28,12.19c-.22.22-.39.49-.48.8-.09.3-.1.62-.03.93Z"/>
  <path class="st1" d="M25.11,27l-18.28,4.83c-.31.07-.6.23-.83.45-.23.22-.39.5-.48.81L.69,51.26c-.09.3-.09.61-.01.91.08.3.25.57.48.77l12.24,12.24,25.69-25.53-12.28-12.19c-.21-.23-.48-.4-.78-.48-.3-.08-.62-.07-.92.02Z"/>
  <path class="st1" d="M76.9,77.17l-12.11-12.02-25.65,25.46,12.1,12.05c.28.27.62.46.99.56.37.1.76.11,1.14.02l17.82-4.71c.37-.1.71-.3.99-.57.27-.27.47-.61.58-.98l4.74-17.7c.09-.37.08-.76-.02-1.13-.1-.37-.29-.7-.56-.98Z"/>
  <path class="st3" d="M77.53,51.26l-4.9-18.16c-.08-.3-.23-.58-.45-.8-.22-.22-.49-.38-.79-.46l-18.29-4.83c-.3-.08-.61-.09-.91,0-.3.08-.57.24-.78.46l-12.24,12.19,25.66,25.53,12.24-12.19c.21-.23.37-.5.45-.81.08-.3.08-.62,0-.92Z"/>
  <path class="st4" d="M.69,79.06l4.9,18.17c.08.3.24.58.46.8.22.22.5.38.81.45l18.33,4.84c.3.08.61.09.91,0,.3-.08.57-.24.78-.47l12.24-12.19-25.65-25.52-12.28,12.19c-.22.22-.39.49-.48.8-.09.3-.1.62-.03.93Z"/>
  <path class="st0" d="M25.11,27l-18.28,4.83c-.31.07-.6.23-.83.45-.23.22-.39.5-.48.81L.69,51.26c-.09.3-.09.61-.01.91.08.3.25.57.48.77l12.24,12.24,25.69-25.53-12.28-12.19c-.21-.23-.48-.4-.78-.48-.3-.08-.62-.07-.92.02Z"/>
  <path class="st2" d="M76.9,77.17l-12.11-12.02-25.65,25.46,12.1,12.05c.28.27.62.46.99.56.37.1.76.11,1.14.02l17.82-4.71c.37-.1.71-.3.99-.57.27-.27.47-.61.58-.98l4.74-17.7c.09-.37.08-.76-.02-1.13-.1-.37-.29-.7-.56-.98Z"/>
  <polygon class="st1" points="13.47 65.14 39.17 39.65 64.83 65.18 39.12 90.67 13.47 65.14"/>
</svg>