<?xml version="1.0" encoding="UTF-8"?>
<svg id="Layer_1" xmlns="http://www.w3.org/2000/svg" version="1.1" viewBox="0 0 756 120">
  <!-- Generator: Adobe Illustrator 29.4.0, SVG Export Plug-In . SVG Version: 2.1.0 Build 152)  -->
  <defs>
    <style>
      .st0 {
        fill: #e84855;
      }

      .st1 {
        fill: #fff;
      }

      .st2 {
        fill: #3084c6;
      }

      .st3 {
        fill: #ffeb62;
      }

      .st4 {
        fill: #7ac143;
      }
    </style>
  </defs>
  <path class="st1" d="M42.25,87.1c2.13-7.91,4.26-15.81,6.4-23.69,1.81-6.66,5.56-9.45,12.53-9.4,6.52,0,10.49,3.12,12.24,9.53,2.05,7.81,4.18,15.65,6.82,23.41,1.2-6.29,2.4-12.59,3.61-18.89.72-3.71,1.24-3.96,4.19-1.81,2.09,1.58,4.52,2.66,7.09,3.16,2.57.5,5.23.4,7.76-.29,3.14-.79,3.71-.28,2.82,2.72-3.66,12.94-7.37,25.87-11.14,38.8-.51,2.07-1.64,3.93-3.23,5.34-1.59,1.41-3.57,2.31-5.68,2.58-2.23.4-4.51.47-6.77.22-5.38-.51-8.94-3.25-10.42-8.56-2.16-8.02-4.37-16.02-6.62-24.01-.12-1.1-.55-2.14-1.24-3.01-2.25,8.1-4.43,15.98-6.62,23.87-.45,1.58-.89,3.17-1.4,4.73-.23.68-.55,1.33-.94,1.93-3.8,5.73-9.6,5.51-15.29,5.06-2.19-.07-4.3-.86-5.99-2.25-1.69-1.39-2.88-3.3-3.37-5.44-6.94-23.41-13.88-46.83-20.83-70.26-.29-.89-.29-1.85,0-2.74.29-.89.87-1.66,1.63-2.21,1.95-1.87,4.34-3.2,6.95-3.88,2.61-.68,5.35-.67,7.96.02,5.47,1.37,7.71,5.78,8.85,10.84,3.13,13.82,6.24,27.64,9.35,41.46.2.89.46,1.77.69,2.65l.63.14Z"/>
  <path class="st1" d="M426.53,111.79c-.64,1.62-1.64,3.08-2.92,4.28-1.28,1.19-2.8,2.09-4.46,2.62-1.66.53-3.42.69-5.15.46-1.73-.23-3.39-.84-4.86-1.78-3.32-2.21-3.71-5.75-3.71-9.3v-40.96c0-6.88.07-13.76,0-20.64-.09-.92.17-1.83.72-2.57.55-.74,1.35-1.25,2.25-1.43,9.62-3.18,17.6,2.04,18.24,12.19.29,4.79,0,9.61,0,14.38.53,0,.79.15.9.06,13.35-11.39,32.48-6.07,37.55,10.76,3.34,11.13,2.68,22-4.66,31.62-2.94,3.62-6.91,6.25-11.39,7.54-4.48,1.29-9.25,1.17-13.66-.34-2.98-1.08-4.29-2.09-8.83-6.89ZM446.63,91.47c.03-2.79-.78-5.52-2.31-7.84-1.28-1.69-3.07-2.92-5.1-3.53-2.03-.61-4.2-.55-6.2.15-1.88.5-3.54,1.63-4.68,3.21-1.14,1.58-1.71,3.5-1.59,5.45,0,1.84-.09,3.71,0,5.53.37,4.87,3.11,7.89,7.71,8.66,6.89,1.14,12.17-3.97,12.17-11.63Z"/>
  <path class="st1" d="M270.48,69.05v-21.19c0-4.5.26-4.83,4.55-5.75,9.84-2.12,16.57,3.53,16.73,14.26.15,10.26,0,20.53,0,30.79v21.55c0,3.71-.69,7.42-4.53,9.08-2.11.99-4.42,1.45-6.75,1.34-2.33-.11-4.59-.79-6.59-1.98-1.89-1.13-2.34-3.28-3.03-5.1-.09-.06-.2-.1-.3-.12-.11-.02-.22,0-.33.02-.11.03-.2.08-.29.16-.08.07-.15.16-.19.26-7.29,10.88-24.09,9.06-31.92.28-6.63-7.42-8.09-16.37-7.19-25.89.27-2.87.93-5.68,1.96-8.38,5.91-15.39,23.94-20.18,36.71-9.76.37.18.77.33,1.17.42ZM270.48,90.08c.2-2.64.26-5.94-2.99-8.34-1.31-.99-2.84-1.65-4.46-1.94-1.62-.28-3.28-.18-4.85.3-1.57.48-3,1.33-4.18,2.48-1.18,1.14-2.07,2.55-2.6,4.11-1.12,3.34-1,6.97.33,10.23.83,2.17,2.41,3.97,4.45,5.09,2.04,1.11,4.41,1.46,6.68.99,4.8-.89,7.42-4.17,7.55-9.4.07-.8.06-1.76.06-3.48v-.04Z"/>
  <path class="st1" d="M681.26,111.35c-9.17,13.37-26.88,9.09-34,0-7.93-10.16-8.39-28.84-.66-39.13,1.87-2.43,4.2-4.46,6.86-5.99,2.66-1.52,5.59-2.51,8.63-2.9,3.04-.39,6.13-.17,9.08.64,2.96.81,5.72,2.19,8.14,4.08.38.3.79.57,1.24.87.89-.88.54-1.86.54-2.71,0-6.48.12-12.95,0-19.42-.06-2.55,1.02-3.71,3.3-4.37,9.44-2.82,17,2.13,17.84,12.03.17,2.04.16,4.11.16,6.19v45c0,1.55,0,3.09-.1,4.63-.38,5.49-3.33,8.35-8.87,8.66h-1.55c-6.38.04-8.44-1.37-10.63-7.56ZM681.09,90.92c-.23-2.47.64-5.43-1.65-7.91-5.11-5.52-14.65-3.86-17.23,3.19-1.38,3.6-1.28,7.6.27,11.13.9,2.16,2.54,3.92,4.63,4.96,2.09,1.04,4.49,1.3,6.75.72,5.28-1.24,7.21-4.4,7.22-12.11h0Z"/>
  <path class="st1" d="M553.92,111.35c-6.28,7.19-14.07,9.24-23,7.62-7.24-1.32-11.75-6-12.83-13.1-.95-6.32,2.13-12.01,8.56-15.3,6.97-3.56,14.56-4.14,22.21-4.49,1.24-.06,3.13.73,3.64-.71.62-1.79-.33-3.6-1.73-4.95-3.39-3.37-11.49-2.55-14.85,1.48-2.99,3.62-8.02,4.19-12.45,1.41-3.37-2.1-4.39-6.38-2.47-10.69.59-1.44,1.47-2.74,2.59-3.82,1.11-1.08,2.44-1.92,3.9-2.47,11.93-4.39,24.03-4.95,35.81.2,8.35,3.61,10.65,11.26,10.82,19.58.2,9.55,0,19.1.08,28.65.09.92-.17,1.85-.74,2.58-.57.73-1.39,1.22-2.31,1.37-7.67,2.21-13.29-.07-17.22-7.37ZM548.9,95.51c-3-.09-5.97.55-8.66,1.87-.83.42-1.52,1.08-1.97,1.89-.45.81-.65,1.75-.57,2.67,0,.82.23,1.63.66,2.32.44.69,1.07,1.25,1.81,1.6,1.17.52,2.43.79,3.71.8,1.28,0,2.54-.27,3.71-.79,1.17-.52,2.21-1.28,3.07-2.23.85-.95,1.5-2.07,1.89-3.29,1.16-4.18.48-5.04-3.65-4.89v.04Z"/>
  <path class="st1" d="M189.89,72.2c4.35-5.67,9.66-8.97,16.73-9.11,11.58-.14,19.1,6.41,19.65,17.96.46,9.74.27,19.51.07,29.26-.11,5.39-3.24,8.2-8.66,8.54h-2.78c-6.48-.17-9.65-3.27-9.74-9.76-.09-7.09.09-14.18-.07-21.26-.14-6.48-5.58-9.4-11.25-6.19-.92.44-1.7,1.15-2.22,2.03-.53.88-.78,1.9-.73,2.92,0,7.89.42,15.81-.28,23.7-.49,5.62-3.35,8.35-8.92,8.56-1.95.15-3.92.03-5.84-.36-1.48-.28-2.84-1-3.9-2.06-1.06-1.07-1.77-2.43-2.04-3.91-.29-1.3-.45-2.64-.46-3.97v-40.05c-.11-.96.14-1.92.71-2.7.57-.78,1.42-1.31,2.37-1.48,7.45-2.23,12.83.06,17.37,7.87Z"/>
  <path class="st1" d="M600.58,72.12c4.58-5.96,10.23-9.11,17.63-8.99,10.07.16,17.18,5.91,18.39,15.94,1.06,10.53,1.14,21.13.23,31.67-.4,6.01-3.71,8.23-10.45,8.2s-9.9-2.26-10.41-8.29c-.42-4.95-.22-10.05-.27-15.07v-7.71c0-2.93-.84-5.52-3.8-6.83-2.68-1.24-6.99-.16-9.2,1.95-.47.49-.83,1.07-1.04,1.72-.21.64-.28,1.32-.2,2v20.95c-.06,9.82-7.74,14.56-16.75,10.31-3.71-1.75-4.54-5.05-4.54-8.74v-33.58c0-2.47.11-4.95,0-7.42-.12-2.15.9-3.14,2.81-3.71,7.32-2.46,12.43-.35,17.6,7.61Z"/>
  <path class="st1" d="M135.8,63.1c12.77,0,22.68,6.19,26.86,16.53,4.55,11.32,2.19,25.02-6.19,32.53-9.26,8.35-20.33,9.35-31.82,6.19-10.11-2.83-16.22-9.9-18.18-20.13-3.72-19.75,8.34-35.36,29.32-35.11ZM124.17,91.31c0,7.24,4.38,12,11.13,12.04,6.76.04,11.26-4.84,11.27-11.91.01-7.08-4.58-12.06-11.14-12.06s-11.27,4.86-11.27,11.99v-.05Z"/>
  <path class="st1" d="M326.05,63.1c14.07,0,24.6,9.07,26.58,22.88.61,4.17-.42,5.62-4.61,6.36-9.61,1.68-19.21,3.36-28.81,5.02-.99.17-2.35,0-2.72,1.04-.37,1.04.69,2.05,1.42,2.88,5.11,5.85,16.99,4.61,21.66-2.47,1.41-2.14,2.67-3.41,5.36-2.93,3.22.58,5.99,1.69,7.16,5.04.5,1.41.65,2.93.44,4.41-.22,1.48-.79,2.89-1.68,4.1-2.09,2.97-5.02,5.23-8.43,6.5-8.85,3.62-17.98,5.31-27.4,2.64-10.67-2.99-17.72-12.56-18.48-24.41-1.15-18.1,11.16-31.04,29.52-31.04ZM324.23,76.96c-2.44-.03-4.8.84-6.64,2.43-1.84,1.6-3.04,3.81-3.36,6.23-.14,1.24-.12,2.36,1.66,2.04,5.15-.93,10.29-1.88,15.44-2.77,1.45-.25,1.55-.89,1.14-2.13-.58-1.71-1.69-3.2-3.17-4.24-1.48-1.04-3.25-1.59-5.06-1.56Z"/>
  <path class="st1" d="M728.97,119.57c-4.95-.12-10.7-.52-16.08-2.99-3.92-1.82-6.53-4.58-6.58-9.19,0-2.39.93-4.69,2.61-6.4,1.41-1.58,2.61-1.81,4.44-.42,4.51,3.34,10,5.08,15.61,4.95,2.21,0,5.36.27,5.78-2.78.42-3.06-2.73-3.08-4.76-3.71-3.71-1.13-7.66-1.57-11.34-2.94-6.31-2.35-10.54-6.43-11-13.45-.48-7.42,2.39-13.25,9.22-16.33,4.89-2.23,10.21-3.39,15.59-3.41,5.38-.01,10.7,1.12,15.6,3.32,7.42,3.12,8.66,11.25,3.24,16.32-1.42,1.31-2.47,1.6-4.21.17-3.63-3.1-8.14-5-12.89-5.43-1.74-.18-3.5.06-5.13.71-.55.16-1.04.49-1.39.96-.34.46-.52,1.03-.51,1.6.04.52.26,1.01.61,1.4.35.39.82.65,1.33.74,2.57.74,5.17,1.39,7.77,2,3.33.67,6.59,1.67,9.72,2.97,5.9,2.66,9.33,7.1,9.35,13.61.02,6.51-2.85,11.89-9.01,14.98-5.41,2.76-11.22,3.35-17.98,3.33Z"/>
  <path class="st1" d="M491.48,71.68c5.11-7.56,10.05-9.9,16.66-8.09,4.62,1.24,7.29,4.45,7.92,9.51.57,4.55-1.78,9.71-5.26,11.78-.52.32-1.12.47-1.72.44-.61-.03-1.19-.25-1.67-.62-7.58-4.24-13.88-.98-14.54,7.73-.4,5.21-.15,10.47-.2,15.7,0,3.8-.42,7.68-4.32,9.53-2.08,1.04-4.39,1.55-6.72,1.5-2.33-.05-4.61-.67-6.64-1.81-2.56-1.4-3.5-4.04-3.51-6.83-.11-14.27-.11-28.53-.11-42.79-.03-.72.2-1.42.64-1.99.44-.57,1.06-.97,1.76-1.13,6.76-2.67,13.21-.45,16.91,5.86.18.33.48.64.79,1.2Z"/>
  <path class="st1" d="M377.79,71.87c3.1-6.25,7.73-9.22,14.36-8.66,2.33.09,4.57.97,6.34,2.49,1.77,1.52,2.98,3.59,3.43,5.89,1.15,5.33-.96,10.92-4.95,13.3-.51.32-1.11.49-1.72.46s-1.19-.23-1.67-.6c-7.77-4.27-14.09-.83-14.56,8.02-.27,5.22-.15,10.45-.21,15.69,0,3.85-.62,7.68-4.55,9.38-2.11,1-4.42,1.46-6.75,1.36-2.33-.11-4.59-.79-6.6-1.97-2.48-1.42-3.22-3.98-3.23-6.64-.06-14.27,0-28.53-.08-42.78-.05-.77.18-1.54.67-2.14.48-.61,1.18-1.01,1.94-1.12,5.57-1.63,13.27-1.41,16.58,6.01.3.47.63.92.99,1.34Z"/>
  <path class="st2" d="M56.74,19.66c.02-4.32,1.75-8.45,4.82-11.49,3.06-3.04,7.21-4.74,11.53-4.72,4.37.02,8.55,1.77,11.64,4.87,3.08,3.1,4.82,7.29,4.82,11.66-.1,4.37-1.91,8.52-5.05,11.56-3.14,3.04-7.35,4.72-11.72,4.67-4.32-.08-8.43-1.86-11.43-4.97-3-3.1-4.65-7.27-4.59-11.59Z"/>
  <path class="st4" d="M111.35,52.67c-.02,2.58-.8,5.09-2.24,7.22-1.44,2.13-3.49,3.79-5.87,4.76-2.39.97-5,1.22-7.53.71-2.52-.51-4.84-1.76-6.66-3.58s-3.05-4.15-3.55-6.67c-.5-2.53-.24-5.14.74-7.52.99-2.38,2.65-4.42,4.79-5.85,2.14-1.43,4.66-2.2,7.23-2.21,1.73,0,3.43.33,5.03.99,1.6.66,3.04,1.63,4.26,2.85,1.22,1.22,2.18,2.68,2.83,4.27.65,1.6.98,3.31.97,5.03Z"/>
  <path class="st0" d="M10.55,27.63c-2.75-.02-5.39-1.1-7.36-3.02C1.23,22.68.08,20.07,0,17.32c-.03-2.08.55-4.12,1.69-5.87,1.13-1.74,2.75-3.11,4.66-3.94,1.91-.82,4.02-1.05,6.07-.67,2.04.38,3.93,1.36,5.41,2.82,1.49,1.45,2.51,3.32,2.93,5.35.42,2.04.24,4.15-.54,6.08-.78,1.93-2.11,3.58-3.83,4.75-1.72,1.17-3.75,1.8-5.83,1.81v-.02Z"/>
  <path class="st3" d="M45.6,6.78c.03.9-.12,1.79-.44,2.63-.32.84-.8,1.61-1.42,2.26-.62.65-1.36,1.17-2.18,1.54-.82.36-1.71.56-2.6.58-.89.01-1.78-.15-2.61-.49-.83-.34-1.58-.83-2.21-1.46-.63-.63-1.13-1.38-1.47-2.21-.34-.83-.51-1.71-.5-2.61-.04-.89.09-1.79.4-2.63.31-.84.78-1.61,1.39-2.27.61-.65,1.35-1.18,2.17-1.54C36.95.21,37.83.02,38.73,0c.9-.01,1.79.15,2.62.49.83.33,1.59.83,2.23,1.46.64.63,1.15,1.38,1.5,2.21s.53,1.72.53,2.62Z"/>
</svg>